<?xml version='1.0' encoding='utf-8'?>
<svg xmlns="http://www.w3.org/2000/svg" version="1.1" viewBox="1012.364 112.921 307.618 710.796" width="200" height="462"><g id="leaves1">
		<path style="fill:#869F10;" d="M1267.44,800.058c-5.04,9.937-9.478,14.41-12.524,11.063c10.584-21.81,24.077-97.793-8.877-207.144    c-18.096-60.042-52.238-124.857-103.793-208.645c-40.862-66.421-55.311-162.864-73.748-196.637    c-18.437-33.774-49.165-78.805-40.971-78.805c0.519,0,1.106,0.075,1.748,0.21c9.615,2.161,34.06,20.324,89.071,57.58    c46.338,31.387,62.822,81.807,109.939,135.845s73.748,189.132,79.894,272.44C1313.014,651.575,1286.096,763.268,1267.44,800.058z" />
		<path style="opacity:0.5;fill:#596811;" d="M1302.839,669.572c-8.235,53.032-23.504,107.01-35.399,130.486    c-3.387,1.366-5.354,2.056-5.354,2.056s5.121-31.522,8.194-42.78c1.311-4.803,1.311-21.69,0.587-40.258    c-1.011-24.977-3.36-53.002-5.709-58.811c-4.097-10.132-19.461-68.673-31.753-96.818c-12.291-28.145-28.707-69.829-12.291-51.786    c33.801,37.151,60.063,118.403,59.408,106.95c-8.194-141.849-45.655-201.41-59.408-225.157    c-21.51-37.151-52.429-57.535-46.092-48.409c43.02,61.918,74.922,179.345,67.602,160.987    c-54.287-136.22-89.112-158.736-89.112-158.736c-2.049,7.88,20.308,68.298,15.364,59.667    c-17.413-30.396-22.534-33.774-35.85-51.786c-13.316-18.013-35.85-100.195-46.092-130.591s-36.341-71.465-45.068-81.057    c-9.724-10.687-13.042-18.193-12.592-23.431c9.615,2.161,34.06,20.324,89.071,57.58c11.581,7.851,21.305,16.887,30.1,26.869    c0.014,0.015,0.014,0.015,0.027,0.03c26.385,29.946,38.335,72.373,73.666,112.886c9.621,11.035,22.303,22.739,30.216,39.402    c30.838,64.939,50.932,162.801,55.823,229.097C1309.927,609.711,1307.524,639.491,1302.839,669.572z" />
		<path style="opacity:0.66;fill:#596811;" d="M1302.839,669.572c-8.235,53.032-23.504,107.01-35.399,130.486    c-3.387,1.366-5.354,2.056-5.354,2.056s5.121-31.522,8.194-42.78c1.311-4.803,1.311-21.69,0.587-40.258    c6.897-17.442,11.936-31.312,12.728-36.295c11.267-72.05,7.968-87.8,7.17-110.327c-3.073-86.686-19.461-120.459-16.388-118.208    c19.461,20.264,28.68,122.711,29.704,150.855C1304.519,617.096,1304.205,641.593,1302.839,669.572z" />
		<path style="fill:#596811;" d="M1223.677,543.184c2.561-5.066,34.825,72.613,49.677,103.572    c11.943,24.896,14.34,75.991,6.146,98.506c-8.194,22.516-10.755,60.229-26.631,71.487c0,0,16.106-61.92,8.706-128.339    C1252.356,605.665,1228.798,556.694,1223.677,543.184z" />
		<path style="opacity:0.66;fill:#596811;" d="M1057.232,158.166c24.583,36.025,26.631,42.78,34.825,68.673    c5.421,17.129,17.117,51.994,28.268,80.152c5.705,14.407,21.068,52.878,30.286,64.699c3.585,5.629-11.267-21.953-20.656-69.423    c-1.433-7.243,23.9,23.266,60.091,82.557c1.964,3.217-38.922-70.549-56.677-117.082c23.217,45.782,60.774,54.788,101.062,129.09    c-23.9-54.038-30.728-60.792-74.772-112.579c0,0,37.024,25.862,66.578,66.421c24.406,33.494,47.655,86.247,46.092,78.805    c-12.291-58.541-59.408-118.207-73.748-133.968c-14.34-15.761-29.704-37.151-44.044-60.792s-25.607-45.031-45.068-54.038    c-6.433-2.977-14.833-7.196-23.028-11.263c-4.757-2.361,21.662,15.391,52.39,93.633c-20.815-42.487-40.987-70.04-54.574-85.824    C1074.444,165.827,1055.411,155.497,1057.232,158.166z" />
		<path style="fill:#869F10;" d="M1148.447,204.548c-10.926-9.922-23.401-15.506-39.489-23.867    c-18.437-9.562-22.541-15.206-38.41-29.826c-15.87-14.65-29.704-25.908-41.271-30.756c9.615,2.161,34.06,20.324,89.071,57.58    C1129.928,185.53,1139.652,194.566,1148.447,204.548z" />
		<path style="fill:#B2C123;" d="M1109.982,300.015c5.634,13.509,22.022,51.223,29.192,62.481    c7.17,11.258,27.143,46.72,35.85,62.481c8.706,15.761,24.07,50.098,26.631,57.978s-20.998-41.654-35.338-62.481    c-5.749-8.349-23.046-30.396-33.801-56.289C1127.081,351.099,1109.982,300.015,1109.982,300.015z" />
		<path style="fill:#9CB22B;" d="M1092.398,170.174c7.511,4.503,18.778,7.881,25.266,11.258    c6.487,3.377,15.023,11.258,15.023,11.258S1099.91,178.805,1092.398,170.174z" />
		<path style="fill:#9CB22B;" d="M1206.434,295.136c6.828,11.258,23.217,24.767,29.363,31.147    c6.146,6.38,17.071,25.893,19.803,35.65c0,0-8.194-17.262-18.096-28.145C1227.603,322.906,1210.532,307.895,1206.434,295.136z" />
		<path style="fill:#869F10;" d="M1248.771,592.156c0,0,19.974,38.277,28.168,64.17c8.194,25.893,8.194,59.667,6.658,67.547    c0,0-0.512-11.258-1.536-22.516c-1.024-11.258-6.528-33.546-11.267-50.66C1263.623,624.804,1248.771,592.156,1248.771,592.156z" />
		<path style="fill:#869F10;" d="M1214.97,499.841c6.146,5.629,17.925,24.767,34.313,66.984    c6.657,17.148,17.925,46.72,19.461,50.098c1.536,3.377-8.706-52.349-19.974-75.428s-27.143-47.283-27.143-47.283L1214.97,499.841z    " />
	</g>
</svg>