<?xml version='1.0' encoding='utf-8'?>
<svg xmlns="http://www.w3.org/2000/svg" version="1.1" viewBox="1627.209 58.713 278.434 774.871" width="200" height="557"><g id="leaves3">
		<path style="fill:#596811;" d="M1866.184,126.839L1761.24,335.138l-49.976,127.995c15.015-85.483,13.486-124.687,16.24-157.032    c0.242-2.886,0.571-5.691,0.969-8.426c4.022-28.002,15.318-48.683,24.582-65.329c5.874-10.558,19.993-24.631,36.255-39.782    c11.861-11.025,24.866-22.63,36.639-33.864C1853.862,132.097,1866.184,126.839,1866.184,126.839z" />
		<path style="fill:#869F10;" d="M1789.31,192.563c-4.631,7.246-13.528,13.412-17.814,19.82    c-6.563,9.827-15.373,18.995-23.238,39.724c-7.864,20.729-17.221,30.982-19.828,49.596c0,0-0.03-1.45,0.043-4.028    c4.022-28.002,15.318-48.683,24.582-65.329C1758.93,221.788,1773.049,207.714,1789.31,192.563z" />
		<path style="fill:#869F10;" d="M1884.019,102.652c-2.589,6.291-5.557,13.359-8.795,20.914    c-9.458,22.127-21.191,48.384-32.294,71.522c-6.75,14.064-15.219,28.033-24.48,43.547c-3.67,6.158-7.476,12.56-11.34,19.309    c-17.811,31.077-36.932,69.465-51.459,125.051c-2.687,10.3-5.236,21.195-7.582,32.738c-5.078,24.977-9.237,53.022-12.099,84.763    c-9.457,104.913-42.073,262.936-90.625,317.092c-1.029,1.146-2.055,2.236-3.091,3.293c-7.448,5.106,11.166-21.626,17.426-78.927    c1.025-9.356,1.722-19.521,1.925-30.496c0.4-21.913-3.5-76.098-6.374-100.627c-1.529-13.093-2.851-25.777-3.709-38.206    c-2.788-40.084-0.975-77.552,12.717-117.912c17.928-52.864,14.068-80.914,57.775-129.089    c17.749-19.562,28.093-36.074,35.596-51.453c14.558-29.867,18.387-55.491,44.865-90.946    c40.117-53.72,63.541-57.027,88.635-103.942C1898.046,66.31,1893.672,79.113,1884.019,102.652z" />
		<path style="opacity:0.4;fill:#B2C123;" d="M1757.61,274.171c-7.814,22.447-26.62,55.371-43.84,90.55    c-21.844,44.612-26.783,101.569-26.932,103.349c-0.107-1.298-2.328-31.27-1.368-36.938c0.035-0.248,0.065-0.385,0.067-0.441    c-0.318,1.323-8.083,43.206-11.465,59.236c-6.954,32.978-6.592,58.19-6.05,98.381c-6.533-27.352-5.263-79.793-4.461-90.958    c-4.021,10.849-8.847,37.681-12.039,75.273c-1.299-18.694-1.601-36.81-0.155-54.911c1.637-20.735,5.568-41.463,12.872-63.001    c17.928-52.864,14.068-80.914,57.775-129.089c2.758-3.042,5.336-6.009,7.75-8.906    C1742.913,300.963,1751.275,287.156,1757.61,274.171z" />
		<path style="opacity:0.5;fill:#596811;" d="M1884.019,102.652c-10.18,24.763-26.204,61.407-41.089,92.436    c-29.022,60.472-90.173,119.463-106.96,305.407c-9.658,107.129-43.46,269.633-93.716,320.385    c-7.448,5.106,11.166-21.626,17.426-78.927c6.71-37.28,5.199-78.26,3.889-96.805c-1.839-26.096-4.632-96.378-3.894-91.137    c0.741,5.185,11.73,105.432,11.992,107.703c0.241-1.937,7.729-64.005,8.479-108.016c0.747-43.518,11.996-89.73,12.609-92.15    c-0.192,2.123-3.215,36.487-2.437,78.665c0.32,17.367-0.062,39.638-0.637,60.138c-0.866,30.894,9.072-92.215,11.235-129.173    c2.103-35.789,13.929-101.553,44.533-144.058c-31.742,52.444-31.841,104.479-37.824,176.847    c-2.505,30.296,0.991,72.912,0.991,72.912c3.659-21.701,8.355-79.968,11.917-123.516c3.505-42.874,17.746-83.222,17.336-76.635    c-0.478,7.669-11.393,25.493-10.792,108.728c1.781-32.515,9.191-61.56,15.503-88.319c7.064-29.948,7.423-57.318,14.618-75.093    c17.78-43.931,31.41-53.717,45.616-73.237c14.182-19.549,15.476-31.34,15.476-31.34c-5.695,11.618-13.778,26.413-29.937,42.739    c20.509-31.108,32.347-59.405,33.012-71.284c-20.101,11.099-31.801,50.275-30.087,44.358c4.583-15.816,8.915-34.974,8.915-34.974    c8.272-27.938,40.949-45.771,58.773-60.978C1867.521,130.048,1876.777,116.233,1884.019,102.652z" />
		<path style="opacity:0.66;fill:#596811;" d="M1807.109,257.943c-17.811,31.077-36.932,69.465-51.459,125.051    c5.667-30.09,7.064-62.183,13.83-75.091C1786.098,276.2,1796.833,272.811,1807.109,257.943z" />
		<path style="opacity:0.66;fill:#596811;" d="M1875.223,123.566c-9.458,22.127-21.191,48.384-32.294,71.522    c-6.75,14.064-15.219,28.033-24.48,43.547c5.827-16.455,9.335-25.902,13.255-35.678c2.083-5.195,12.119-36.214,20.766-44.418    c-11.384,10.436-25.918,43.763-31.881,51.12c8.688-19.165,9.215-36.21,14.358-41.939c-5.527,5.85-14.619,9.177-24.686,21.478    c6.008-15.126,30.431-36.721,37.428-41.01C1856.978,142.499,1868.913,133.915,1875.223,123.566z" />
		<path style="opacity:0.66;fill:#596811;" d="M1748.069,415.732c-5.078,24.977-9.237,53.022-12.099,84.763    c-9.457,104.913-42.073,262.936-90.625,317.092c6.117-16.236,12.553-39.763,16.66-50.603    c5.898-15.547,12.295-70.482,15.117-91.445c2.775-20.638,8.358-95.205,8.532-97.523c1.866,22.895,0.684,86.731,0.672,88.212    c0.225-0.472,3.847-8.148,4.778-26.123c0.963-18.551,11.267-103.003,12.148-99.631c0.881,3.371-5.916,88.54-1.649,82.632    c10.458-14.487,20.828-82.3,20.828-82.3C1730.984,472.966,1741.015,437.721,1748.069,415.732z" />
		<path style="fill:#B2C123;" d="M1729.874,316.757c-6.4,8.863-30.955,46.722-34.932,64.856c-3.96,18.074-16.973,63-18.636,68.324    c0.161-1.291,3.001-22.059,3.99-29.013c-0.408,1.169-13.345,38.699-17.676,53.004c-7.803,25.728-9.317,42.172-10.288,54.339    c0,0-0.45-4.073-0.965-10.552c1.637-20.735,5.568-41.463,12.872-63.001c17.928-52.864,14.068-80.914,57.775-129.089    c2.758-3.042,5.336-6.009,7.75-8.906L1729.874,316.757z" />
		<path style="opacity:0.4;fill:#B2C123;" d="M1751.839,310.279c16.454-30.74,20.105-46.946,26.709-67.734    c4.787-15.068,9.924-38.258,17.642-45.256c-8.966,16.515-5.115,28.073-13.253,49.345    C1776.923,262.355,1770.435,282.969,1751.839,310.279z" />
		<path style="fill:#B2C123;" d="M1824.037,162.497c11.984-12.907,19.318-19.783,29.935-29.978s22.932-21.837,22.932-21.837    s-4.6,8.92-15.808,21.156C1852.716,140.985,1841.001,144.824,1824.037,162.497z" />
		<path style="fill:#B2C123;" d="M1662.01,641.536c1.988,12.373,8.522,44.524,5.922,67.925c-2.601,23.401-8.738,45.182-8.738,45.182    s4.877-43.279,5.269-58.457C1664.854,681.009,1662.01,641.536,1662.01,641.536z" />
	</g>
	</svg>