<?xml version='1.0' encoding='utf-8'?>
<svg xmlns="http://www.w3.org/2000/svg" version="1.1" viewBox="1357.829 57.309 172.301 814.731" width="200" height="946"><g id="leaves2">
		<path style="fill:#869F10;" d="M1456.291,196.315c20.961,44.911,39.204,94.47,50.265,169.767    c4.933,33.583,8.442,72.262,10.126,117.942c5.461,148.115,2.409,321.547-34.912,367.595    c-10.078,12.434,17.657-78.341-31.449-238.586c-12.121-39.553-24.473-73.102-33.381-100.659    c-7.408-22.89-12.426-41.645-12.968-56.255c-1.187-32.199-38.155-120.882-20.546-214.335    c6.608-35.085,23.883-52.359,27.011-81.804c3.129-29.445,2.996-45.701,20.176-81.449    C1436.973,65.297,1425.976,131.381,1456.291,196.315z" />
		<path style="opacity:0.4;fill:#B2C123;" d="M1408.026,194.6c2.153,15.522-1.286,72.281,7.387,128.907    c8.673,56.626,23.402,113.187,26.515,126.178c0,0-15.551-43.063-25.276-71.151c-20.144-58.182-20.698-73.208-21.448-98.316    c-4.843,16.299-0.981,59.112,0.726,91.119c0.999,18.729,9.37,63.621,9.37,63.621s-17.348-53.778-21.111-91.551    c-3.763-37.773-7.19-68.78,4.096-105.597C1399.569,200.994,1408.026,194.6,1408.026,194.6z" />
		<path style="opacity:0.5;fill:#596811;" d="M1498.438,367.84c-3.751-70.779-21.547-116.499-23.479-120.049    c-13.378-34.214-33.35-64.304-37.781-79.592c-9.263-31.965-3.558-55.72-7.616-71.872c-8.092,12.192-13.299,51.284-12.115,75.201    c0.902,18.089-17.12,85.758,31.269,240.828c-10.45-40.52-11.576-70.217-12.474-100.188c-1.076-36.142,4.427-48.058,7.73-25.911    c9.903,66.456,15.986,141.521,24.863,200.248c11.433,75.565,8.001,132.306,7.89,134.059c-2.578-21.138-5.714-42.665-9.356-59.536    c-18.735-86.628-52.529-145.922-57.428-193.066c0.217,63.021,18.52,104.129,35.198,154.514    c11.122,33.613,18.908,68.46,24.007,95.788c-13.338-32.647-31.88-56.144-52.205-105.889c8.908,27.557,21.26,61.106,33.381,100.659    c32.717,106.764,31.32,182.684,29.731,217.796c-0.001,0.073-0.002,0.146-0.006,0.205c-0.8,17.442-1.628,24.712,1.725,20.584    c33.474-41.302,39.376-185.08,36.298-321.152c-0.348-15.639-0.826-31.172-1.386-46.443c-1.684-45.68-5.193-84.359-10.126-117.942    l-0.622-2.105c12.307,119.47-3.336,266.694-4.41,251.861C1500.45,601.004,1515.121,480.439,1498.438,367.84z M1465.531,339.767    c-8.794-51.998-5.489-72.674-0.406-81.388c17.735,22.751,9.669,63.351,15.708,101.109c20.877,130.441,4.259,194.95,4.286,197.116    C1479.737,510.713,1477.28,409.225,1465.531,339.767z" />
		<path style="opacity:0.66;fill:#596811;" d="M1429.012,110.13c-1.533,6.19-2.229,24.539,4.43,52.755    c4.293,18.19,29.586,55.414,39.676,89.757c0,0-10.367-16.833-14.055-13.292c-1.021,0.98-6.205,13.491-4.781,38.216    c2.065,35.858,4.304,70.81,5.276,82.363c-4.85-17.244-10.08-62.633-11.184-74.736c-1.105-12.102-6.302-58.479-6.69-67.152    c-0.743-16.588-8.322-32.822-8.322-32.822s-4.146,23.294-5.746,54.893c-1.327,26.189,1.298,56.637,1.298,56.637    s-9.21-64.043-6.112-90.757c3.098-26.714,6.546-29.622,6.159-36.551C1428.573,162.514,1418.54,136.854,1429.012,110.13z" />
		<path style="fill:#B2C123;" d="M1411.183,169.496c0.687,7.905-1.268,22.772-4.75,35.485s-28.317,46.385-24.89,100.058    c0,0-3.26-20.552,2.687-52.128s16.709-46.348,19.776-53.015C1409.737,187.439,1411.183,169.496,1411.183,169.496z" />
		<path style="fill:#B2C123;" d="M1423.47,99.127c0,0-3.067,23.982-4.329,32.609c-1.262,8.627-5.795,24.992-5.795,24.992    s0.759-25.848,3.281-36.029C1419.149,110.518,1423.47,99.127,1423.47,99.127z" />
		<path style="fill:#9CB22B;" d="M1433.829,137.178c2.726,6.063,6.977,21.352,10.031,32.733    c3.054,11.381,14.615,39.195,14.615,39.195s-16.507-29.791-20.31-43.615C1434.363,151.667,1433.829,137.178,1433.829,137.178z" />
		<path style="opacity:0.66;fill:#596811;" d="M1518.068,530.467c3.079,136.072-2.823,279.85-36.298,321.152    c-3.353,4.128-2.525-3.142-1.725-20.584c0.005-0.06,0.006-0.133,0.006-0.205c1.036-16.862,1.894-36.647,1.746-54.652    c-4.033-118.906-34.705-186.972-31.67-182.656c15.66,24.665,32.865,86.474,32.352,67.806c-0.344-18.76,1.739-39.23,3.139-57.735    c4.137-54.478,17.87-115.41,7.428-198.581c18.926,56.095,5.251,175.754,1.999,216.124c-1.102,13.677-0.769,28.569,0.153,42.284    C1496.958,689.559,1515.012,574.652,1518.068,530.467z" />
	</g>
	</svg>