<?xml version='1.0' encoding='utf-8'?>
<svg xmlns="http://www.w3.org/2000/svg" version="1.1" viewBox="58.617 815.472 175.552 685.246" width="250" height="976"><g id="tulips5">
		<g>
			<path style="fill:#7C832A;" d="M152.739,1095.257c-0.06,6.094-0.154,12.706-0.268,19.757c-0.013,1.152-0.034,2.319-0.054,3.5     c-0.033,2.017-0.067,4.07-0.101,6.159c-2.114,120.77-9.342,349.108-9.732,361.324c-0.107,3.32-2.013,6.115-4.678,7.34     c-0.933,0.425-1.953,0.663-3.027,0.663c-0.094,0-0.181,0-0.268-0.007c-4.262-0.151-7.597-3.983-7.45-8.557     c0.101-3.097,8.047-254.21,9.899-372.661c0.06-3.825,0.114-7.52,0.161-11.056c0.081-5.928,0.141-11.431,0.174-16.444     c0.047-4.934,0.06-9.407,0.054-13.347c-0.014-6.396-0.081-11.402-0.222-14.773c-0.188-4.567,3.107-8.442,7.369-8.643     c4.282-0.202,7.866,3.342,8.054,7.909c0.127,3.04,0.201,7.333,0.221,12.713C152.907,1076.127,152.86,1084.957,152.739,1095.257z" />
			
				<linearGradient id="SVGID_00000085233030460906681310000010207556588595689106_" gradientUnits="userSpaceOnUse" x1="137.3992" y1="1212.9088" x2="137.3992" y2="1324.1927">
				<stop offset="0" style="stop-color:#7C7E2A" />
				<stop offset="1" style="stop-color:#B1AB48" />
			</linearGradient>
			<path style="fill:url(#SVGID_00000085233030460906681310000010207556588595689106_);" d="M141.92,1238.209     c-0.503,13.235-3.272,58.703-3.272,68.067s-0.923,90.486-4.279,98.049c-3.356,7.563,0-67.707,0-67.707l2.349-109.483     C138.145,1208.767,141.834,1207.112,141.92,1238.209z" />
			
				<linearGradient id="SVGID_00000152255206470950626270000016709693976000079499_" gradientUnits="userSpaceOnUse" x1="147.248" y1="1180.3254" x2="143.7369" y2="1106.0502">
				<stop offset="0" style="stop-color:#7C7E2A" />
				<stop offset="1" style="stop-color:#B1AB48" />
			</linearGradient>
			<path style="fill:url(#SVGID_00000152255206470950626270000016709693976000079499_);" d="M151.652,1083.078l-5.497-1.758     l-8.423-6.49c-0.034,5.013-0.094,10.516-0.174,16.444c-0.047,3.537-0.101,7.232-0.161,11.056     c0.274,0.106,1.168,39.45,1.168,39.45s-1.342,50.06,1.007,50.06s6.208-33.763,5.873-44.568     c-0.26-8.382,6.315-36.012,6.376-41.146C151.91,1098.519,151.608,1087.313,151.652,1083.078z" />
			<path style="fill:#BF9F57;" d="M144.101,1092.261c-3.691,12.065-6.803-3.952-6.773-6.707c0.089-8.129,0.132-15.256,0.122-21.19     l16.047-2.715c0.045,9.913-1.762,26.2-1.762,38.085C148.799,1111.709,144.605,1103.426,144.101,1092.261z" />
			<path style="fill:#686820;" d="M152.033,1139.974c-2.409,123.745-9.075,334.307-9.448,346.024     c-0.107,3.32-2.013,6.115-4.678,7.34c1.336-55.873,4.765-200.16,4.765-206.693c0-6.194,5.624-76.797,5.96-139.462     C148.713,1132.034,152.135,1134.709,152.033,1139.974z" />
		</g>
		<g>
			<path style="fill:#FFD41B;" d="M149.247,1079.623l-3.354,0.602l-7.077,1.412c0.689-20.614-15.637-27.779-30.046-35.142     c-2.671-1.361-5.104-2.879-7.366-4.659c-4.293-3.357-7.958-7.65-11.415-13.566c-4.531-7.762-8.708-18.337-13.458-33.31     c-11.196-35.234,1.372-64.049,5.488-76.568c0.037-0.118,0.079-0.242,0.116-0.367c4.037-12.65,6.067-38.022,6.744-48.958     c0.683-11.047,17.147-34.606,24.696-33.873c1.153,0.111,2.128,0.687,2.951,1.63c4.579,5.203,4.494,21.524,3.909,31.504     l18.519,103.812l7.714,80.528l0.012,0.157l0.53,5.504L149.247,1079.623z" />
			<path style="fill:#FFAF0D;" d="M147.418,1054.839l-0.207,3.488l-1.317,21.897l-5.903,0.962     c-0.084-22.509-16.811-27.329-31.22-34.691c-21.213-10.236-29.603-50.754-27.001-45.89c7.802,14.586,25.858,34.356,30.206,32.393     c4.348-1.963,9.375-4.172,3.43-16.933c0,0,21.037,10.798,21.952,12.271c0.756,1.217,7.128,18.507,9.324,24.489     C147.144,1054.08,147.418,1054.839,147.418,1054.839z" />
			
				<linearGradient id="SVGID_00000035520279392030625840000012181638448509402766_" gradientUnits="userSpaceOnUse" x1="91.1765" y1="1033.5804" x2="112.7493" y2="1048.6554">
				<stop offset="0" style="stop-color:#FFAF0D" />
				<stop offset="1" style="stop-color:#DECA6E" />
			</linearGradient>
			<path style="fill:url(#SVGID_00000035520279392030625840000012181638448509402766_);" d="M150.813,1083.078     c-0.671,7.923-5.034,15.846-6.879-0.18c-3.691,9.364-6.548-1.4-6.676-2.885c-0.399-4.635-1.554-9.473-2.903-12.457     c-4.694-10.386-15.139-15.723-25.585-21.06c-2.671-1.361-5.104-2.879-7.366-4.659c-3.543-4.247,4.97-0.877,5.299-0.746     c-8.683-4.908-19.46-26.476-17.384-23.468c5.034,7.293,14.426,14.398,22.884,13.9l34.465,21.145l0.012,0.157l0.53,5.504     C147.211,1058.327,151.484,1075.154,150.813,1083.078z" />
			<path style="fill:#EB8A0F;" d="M100.313,877.162c-4.116,12.761-21.952,68.224-21.495,82.458     c0.457,14.234-3.659,22.578,4.573,39.757c8.232,17.179,21.952,29.695,29.727,32.64c7.775,2.945,9.604-27.731,9.604-27.731     l6.86-95.71L100.313,877.162z" />
			<path style="fill:#FFD41B;" d="M195.895,1034.716l-14.403-150.191c-0.689-23.56,1.957-34.678,6.171-40.496     c2.97-4.097,6.732-9.326,10.793-10.445c2.5-0.694,5.116,0.177,7.732,3.822c6.854,9.568,10.287,43.441,9.598,55.221     c-0.201,3.455,0.128,8.992,0.781,15.575c1.573,15.896,5.025,37.885,7.451,51.419     C227.451,978.762,217.164,1022.936,195.895,1034.716z" />
			<path style="fill:#EB8A0F;" d="M220.591,983.67c0.537-26.474-10.092-50.577-13.076-76.748     c-2.525-22.148-13.145-63.955-19.853-62.894c-4.214,5.818-6.86,16.937-6.171,40.496l14.403,150.191     c7.046-3.902,12.886-11.362,17.422-20.287C219.677,1001.994,220.397,993.239,220.591,983.67z" />
			<path style="fill:#EB8A0F;" d="M213.506,948.331c-1.146-3.514-2.354-8.004-3.592-13.108     c-5.701-23.409-12.189-59.749-17.446-74.258c-6.403-17.67-17.379-30.431-27.44-31.413c-10.061-0.982-17.379,7.853-17.379,7.853     l-0.39,7.343l-7.842,146.775l7,46.163l1.677,11.047l2.896,19.109l0.174,1.142c0.614-0.531,1.26-1.029,1.961-1.475     c2.083-1.324,4.369-2.261,6.616-3.209c9.577-9.714,25.444-17.332,39.58-31.058c7.5-7.284,12.287-18.841,14.946-31.386     c1.622-7.631,2.451-15.628,2.64-23.252C217.195,966.661,215.89,955.628,213.506,948.331z" />
			<path style="fill:#DE810F;" d="M213.145,957.928c5.034,10.264,5.146,36.127,3.523,43.757     c-2.659,12.545-9.846,24.274-17.346,31.558c-15.805,15.346-33.782,23.056-42.703,34.6h-8.519l-5.024-25.765l3.341-4.391     c0,0,46.341-74.627,47.096-102.988c10.319,19.448,12.836,55.642,8.809,71.848C216.92,982.778,210.858,956.174,213.145,957.928z" />
			<path style="fill:#FFD41B;" d="M189.035,869.799c0,0,11.433,52.027,9.604,61.844c-17.379-109.453-48.163-97.65-43.608-99.998     c2.774-1.43,6.189-2.465,9.997-2.093c10.061,0.982,21.037,13.743,27.44,31.413c5.256,14.509,11.744,50.849,17.446,74.258     C205.78,925.125,191.865,876.743,189.035,869.799z" />
			
				<linearGradient id="SVGID_00000176045124312071513380000011135472124543942838_" gradientUnits="userSpaceOnUse" x1="195.9133" y1="987.3069" x2="185.5375" y2="1015.5079">
				<stop offset="0" style="stop-color:#DE810F" />
				<stop offset="1" style="stop-color:#BF9F57" />
			</linearGradient>
			<path style="fill:url(#SVGID_00000176045124312071513380000011135472124543942838_);" d="M214.529,1003.441     c-1.628,7.676-4.31,13.402-7.67,19.587c-2.128,3.92-4.628,7.388-7.537,10.216c-18.235,17.707-39.583,24.709-46.37,39.705     c-0.362,0.8-2.826,2.531-3.104,3.376l-0.948-22.284l-0.805-5.307l12.019-10.464l26.635-23.186     c0.598-0.707,1.152-1.76,1.689-3.063c3.165-7.69,5.573-23.867,10.659-26.387c2.973-1.473,2.458,10.005,0.458,19.698     c-2.001,9.694-3.443,17.559-0.564,15.141c3.269-2.745,7.613-8.548,11.26-20.813c4.799-16.145,5.709-18.842,6.166-11.48     C216.643,991.825,215.377,998.284,214.529,1003.441z" />
			<path style="fill:#BF9F57;" d="M205.343,1020.863c-2.265,5.942-13.888,19.436-17.852,22.445     c-13.091,9.939-25.804,16.719-32.218,26.41c-1.286,1.943-3.202,5.212-4.418,7.102l-1.804-1.26l-0.151-21.519l11.214-15.772     l1.482-2.081c2.64-2.834,19.106-23.058,28.144-22.078c1.51,0.54-2.769,18.367-6.795,24.31     C182.944,1038.42,196.283,1030.857,205.343,1020.863z" />
			<path style="fill:#FFD41B;" d="M197.042,986.615c-0.018,0.393-0.043,0.792-0.079,1.198c-0.707,8.638-5.006,20.889-10.507,32.748     c-7.921,17.074-18.342,33.323-24.172,36.733c-8.279,4.846-24.753,8.651-28.349,2.519c-5.993-10.219-15.783-16.508-23.787-25.097     c-2.677-2.873-5.384-6.42-7.958-10.687c-2.591-4.293-5.049-9.319-7.189-15.104c-2.037-5.51-3.793-11.714-5.11-18.638     c-2.518-13.233-3.439-29.109-1.695-47.845c0.281-3.036,0.579-5.949,0.884-8.73c4.604-42.165,11.458-55.836,15.58-67.838     c6.403-18.651,21.037-36.321,35.672-39.266c3.841-0.772,7.433-0.668,10.885,0.622c2.085,0.779,4.128,1.99,6.14,3.704     c7.348,6.23,14.366,19.09,22.306,41.811C193.383,912.01,197.956,966,197.042,986.615z" />
			<path style="fill:#FFFF73;" d="M157.357,830.933c-0.622,4.424-1.378,10.13-1.939,17.519c3.433,28.71,0.003,79.513-4.113,87.609     c-4.116,8.095-4.802-80.986-7.546-87.612c-2.744-6.626-8.229,22.08-8.918,47.119c-0.689,25.025-5.488,60.371-6.86,64.788     c-1.372,4.417-13.726-27.234-10.979-58.895c-2.055-13.255-26.751,35.336-27.111,88.826c-2.518-13.233-3.439-29.109-1.695-47.845     c0.281-3.036,0.579-5.949,0.884-8.73c4.604-42.165,11.458-55.836,15.58-67.838c6.403-18.651,21.037-36.321,35.672-39.266     c3.841-0.772,7.433-0.668,10.885,0.622C153.302,828.008,155.345,829.218,157.357,830.933z" />
			<path style="fill:#FFFFB6;" d="M151.217,827.229c-20.72,2.814-30.093,17.539-36.27,41.838     c-6.177,24.292-6.86,26.501-14.406,37.545c-4.179,6.116-11.064,27.479-11.461,27.1c4.604-42.165,11.458-55.836,15.58-67.838     c6.403-18.651,21.037-36.321,35.672-39.266C144.174,825.835,147.766,825.94,151.217,827.229z" />
			<path style="fill:#FFFFB6;" d="M133.927,836.669c9.428-8.333-2.503,17.88-4.802,30.922c-4.802,27.241-3.201,41.965-4.573,46.383     c-1.372,4.417-3.201-21.596-1.829-40.738C124.094,854.093,122.265,846.976,133.927,836.669z" />
			<path style="fill:#FFFF73;" d="M162.281,853.602c6.07-15.473,17.379,37.302,14.635,47.119S158.623,862.928,162.281,853.602z" />
			<path style="fill:#FFAF0D;" d="M193.682,935.329c4.502,21.639,5.549,40.831,3.356,56.632     c-5.572,40.149-27.669,61.185-34.753,65.332c-10.061,5.89-12.122,0-12.122,0s-13.602,5.802-18.487-0.929     c-6.009-8.28-14.464-14.069-21.527-21.649c-5.36-5.752-10.879-14.253-15.147-25.791c2.128,4.071,3.848,4.071,8.281,3.704     c-3.884-9.817-6.72-36.288-3.884-53.009c1.372-8.102,6.029,42.876,19.208,57.917c5.66,6.46-4.203-19.813-1.183-53.306     c0.423-4.69,9.732,44.658,17.785,44.297c4.341-0.194,7.904-62.781,8.389-70.588c0.686-11.044,9.396,45.378,7.021,79.106     c2.037,4.743,9.563-12.087,13.952-33.998c5.789-28.901,3.487-51.805,4.53-49.43c8.305,18.908-0.866,76.903,1.131,80.572     c1.199,2.204,3.879-0.816,9.199-13.341c9.814-23.104,4.802-1.472,4.802,7.362C184.233,1015.017,197.541,967.382,193.682,935.329z     " />
			
				<linearGradient id="SVGID_00000147906397804627733790000002602734250086028452_" gradientUnits="userSpaceOnUse" x1="145.6287" y1="1010.6057" x2="145.2685" y2="1035.8163">
				<stop offset="0" style="stop-color:#FFAF0D" />
				<stop offset="1" style="stop-color:#DECA6E" />
			</linearGradient>
			<path style="fill:url(#SVGID_00000147906397804627733790000002602734250086028452_);" d="M188.732,1020.593     c-4.016,12.998-13.408,30.342-26.448,36.701c-8.619,9.758-23.847,6.513-29.958,3.436c-16.701-8.409-14.174-17.424-22.178-26.014     c-2.677-2.873-5.384-6.42-7.958-10.687c0.287-0.975,1.091-1.453,2.543-1.256c5.256,0.707,10.36,4.45,14.251,8.174     c-1.47-2.264-1.872-4.044,0.841-3.756c6.75,0.72,13.507,12.146,13.714,12.506c-0.207-0.537-8.848-22.813-3.427-22.813     c5.488,0,8.921,25.765,8.921,25.765s1.372-39.75,5.488-39.017c4.116,0.733,2.896,39.266,2.896,39.266s4.646-7.604,8.769-18.651     c4.11-11.047,11.811-20.451,6.781-5.235c-3.606,10.907-4.488,21.766-4.714,22.159c0.415-0.471,10.744-13.226,16.147-22.65     c5.488-9.568-7.775,24.05,0.305,17.506C178.799,1032.709,181.573,1029.153,188.732,1020.593z" />
			<path style="fill:#F4F285;" d="M115.074,1046.703c10.403,5.042,16.107,10.444,19.463,16.206     c3.356,5.762,3.356,15.486,6.376,15.846c3.02,0.36,1.342-2.521,3.691-3.962s1.567,7.496,4.643,4.828     c3.076-2.668,3.78-13.244,3.495-19.054c-0.503-10.264,1.93-13.505,1.258-17.827c-0.671-4.322-6.583,12.098-6.583,12.098     s-1.135-19.301-3.149-20.381c-2.013-1.08-2.013,19.808-2.013,19.808s-5.034-11.525-6.376-11.525s0.336,9.724,0.336,9.724     s-6.04-17.287-11.745-17.647c-5.705-0.36,4.698,12.965,4.698,12.965s-11.074-8.643-13.758-8.283     c-2.685,0.36,7.383,9.364,7.383,9.364S117.088,1046.703,115.074,1046.703z" />
			<path style="fill:#F4F285;" d="M155.762,1051.655c1.007-2.701,8.054-12.155,10.319-15.396c2.265-3.241,1.258,1.351-0.252,5.402     c-1.51,4.052-11.074,14.045-11.074,14.045L155.762,1051.655z" />
			<path style="fill:#FFFF73;" d="M216.567,908.201c-1.445,0.38-2.896-0.792-4.208-4.044c-5.945-14.725-9.147-63.316-9.147-63.316     s0,26.014-4.116,16.197c-2.829-6.754-2.201-16.753-0.64-23.455c2.5-0.694,5.116,0.177,7.732,3.822     c6.854,9.568,10.287,43.441,9.598,55.221C215.585,896.081,215.914,901.618,216.567,908.201z" />
			<path style="fill:#FFFFB6;" d="M207.176,844.931c1.664-3.573,6.098,18.651,3.964,21.596     C209.006,869.472,205.652,848.203,207.176,844.931z" />
			<path style="fill:#FFFF73;" d="M116.527,836.823c-0.469,1.387-1.262,2.657-2.342,3.527c0,0-8.537,9.162-11.281,18.978     c-2.744,9.817-7.622,12.107-1.22-5.89c0,0-7.622,5.235-7.012,14.725c0.61,9.489-3.049,24.214-5.793,33.703     c-2.372,8.2-3.829,15.916-6.744,16.158c4.037-12.65,6.067-38.022,6.744-48.958c0.683-11.047,17.147-34.606,24.696-33.873     C114.728,835.304,115.703,835.88,116.527,836.823z" />
			<path style="fill:#FFFFB6;" d="M109.231,837.896c4.071-3.514,1.143,4.908-2.973,8.344     C102.142,849.676,98.712,846.976,109.231,837.896z" />
		</g>
		<path style="fill:#E5EA85;" d="M147.793,1075.875c-0.636-1.229-1.846,11.525-0.336,11.344    C148.967,1087.039,149.47,1079.116,147.793,1075.875z" />
	</g>
	</svg>