<?xml version='1.0' encoding='utf-8'?>
<svg xmlns="http://www.w3.org/2000/svg" version="1.1" viewBox="427.800 73.200 332.272 651.540" width="250" height="490"><g id="tulips3">
		<g>
			<path style="fill:#7C832A;" d="M742.519,711.805c-0.305,3.078-2.483,5.517-5.3,6.287c-0.61,0.174-1.248,0.261-1.917,0.261     c-0.247,0-0.479-0.015-0.726-0.029c-3.993-0.406-6.911-3.949-6.505-7.942c13.488-136.265,19.514-289.981-38.026-396.858     c-30.665-56.945-57.918-78.129-85.461-96.496c-3.339-2.221-4.24-6.737-2.018-10.062c2.236-3.339,6.737-4.24,10.076-2.018     c3.107,2.062,6.229,4.196,9.38,6.418c10.497,7.405,21.285,15.928,32.349,27.166c5.256,5.343,10.585,11.311,15.986,18.062     c10.57,13.227,21.387,29.474,32.465,50.048C728.799,354.86,744,414.549,749.329,489.092     C753.685,550.073,751.521,620.841,742.519,711.805z" />
			
				<linearGradient id="SVGID_00000082328565030306128550000001725918587878597297_" gradientUnits="userSpaceOnUse" x1="679.9315" y1="306.1656" x2="655.2485" y2="264.7853">
				<stop offset="0" style="stop-color:#7C7E2A" />
				<stop offset="1" style="stop-color:#B1AB48" />
			</linearGradient>
			<path style="fill:url(#SVGID_00000082328565030306128550000001725918587878597297_);" d="M686.518,302.097     c-3.615-6.025-14.432-24.959-27.5-38.288c-13.068-13.343-20.69-23.696-28.574-29.678c-7.899-5.997-15.245-11.703-15.245-11.703     s3.02-6.548,6.824-11.064c10.497,7.405,21.285,15.928,32.349,27.166c-0.276,1.684-8.955-0.922-7.782,0.044     c6.171,5.082,13.518,14.607,25.235,30.941c11.703,16.334,31.304,55.275,33.743,61.809     C708.021,337.858,696.319,318.431,686.518,302.097z" />
			
				<linearGradient id="SVGID_00000083052808998241482100000005844097592008803004_" gradientUnits="userSpaceOnUse" x1="714.6902" y1="353.0078" x2="737.5632" y2="496.1475">
				<stop offset="0" style="stop-color:#7C7E2A" />
				<stop offset="1" style="stop-color:#B1AB48" />
			</linearGradient>
			<path style="fill:url(#SVGID_00000083052808998241482100000005844097592008803004_);" d="M711.927,346.018     c0,0,18.875,41.38,24.683,84.212s7.445,99.238,7.623,105.81c0.544,20.146-1.996,39.202-2.722,43.558     c-0.726,4.356,0.182-20.146-1.27-54.992c-1.452-34.846-5.082-107.443-29.039-166.973L711.927,346.018z" />
			<path style="fill:#686820;" d="M742.519,711.805c-0.305,3.078-2.483,5.517-5.3,6.287c1.989-16.276,8.334-73.889,9.554-158.639     c1.452-100.91-10.164-144.468-23.957-191.656c-13.793-47.188-45.736-103.814-53.722-111.073l1.263-0.131     c10.57,13.227,21.387,29.474,32.465,50.048C728.799,354.86,744,414.549,749.329,489.092     C753.685,550.073,751.521,620.841,742.519,711.805z" />
		</g>
		<g>
			<path style="fill:#FD5479;" d="M477.067,87.965c-4.74,4.74-1.194,10.497-5.171,12.927c-7.756,4.74,3.447,11.204,0,13.789     c-3.447,2.585-10.773-5.602-15.944-2.586c-5.171,3.016-0.862,9.48-3.447,11.635c-2.586,2.155-12.927-0.862-15.082,5.171     c-2.155,6.033,5.389,17.472,10.773,23.7c21.977,25.424,96.955,59.035,112.037,51.278c15.082-7.756,20.613-34.936,10.773-50.848     C530.5,87.534,481.808,83.225,477.067,87.965z" />
			<path style="fill:#E1394F;" d="M477.067,87.965c-4.74,4.74-1.194,10.497-5.171,12.927c-7.756,4.74,3.447,11.204,0,13.789     c-3.447,2.585-11.06,0.862-11.922,4.309c-1.452,5.808,4.596,13.358,2.011,15.513c-2.585,2.155-11.635-2.873-13.789,3.16     c-2.155,6.033,4.096,16.467,9.48,22.695c21.977,25.424,87.475,51.278,102.557,43.522c15.082-7.756,20.613-34.936,10.773-50.848     C530.5,87.534,481.808,83.225,477.067,87.965z" />
			<path style="fill:#E1394F;" d="M616.252,210.344c-6.033,20.684-20.684,35.335-61.189,34.473     c-40.506-0.862-89.63-30.164-106.004-40.506c-7.848-4.953-8.963-7.929-8.469-10.457c0.529-2.723,2.953-4.918,0.712-8.503     c-4.309-6.895-7.113-14.846-2.585-19.822c1.724-1.896,3.643-3.102,5.642-3.872c7.998-3.091,17.11,0.77,18.489-4.746     c5.688-22.741,48.262,0.862,74.117,11.204C562.819,178.457,599.016,209.482,616.252,210.344z" />
			<path style="fill:#FD5479;" d="M496.895,222.835c-17.673-3.872-32.749-10.767-45.688-20.247c-3.884-2.85-7.458-5.78-10.618-8.733     c0.529-2.723,2.953-4.918,0.712-8.503c-4.309-6.895-7.113-14.846-2.585-19.822c1.724-1.896,3.643-3.102,5.642-3.872     c0.552,2.677,2.93,6.4,6.423,10.767c18.96,23.706,30.17,27.584,35.335,31.026c3.871,2.579-23.7-5.602-32.313-18.535     c0,0,0.425,8.193,16.8,20.258C486.978,217.239,498.676,223.237,496.895,222.835z" />
			<path style="fill:#FF719E;" d="M438.07,167.899c0.344-1.515,1.077,8.403,10.773,19.176c7.197,7.996,12.066,11.204,12.497,12.712     c0.431,1.508-13.789-11.204-16.806-13.789C441.517,183.412,435.915,177.379,438.07,167.899z" />
			<path style="fill:#FF719E;" d="M444.965,188.798c3.016,0.431,6.464,3.016,10.126,6.033c3.663,3.016,10.773,8.618,9.049,9.695     c-1.724,1.077-19.176-10.773-20.684-12.496C441.948,190.307,444.965,188.798,444.965,188.798z" />
			<path style="fill:#C51C30;" d="M616.252,210.344c-17.236-0.862-53.433-31.887-79.288-42.229     c-25.855-10.342-68.431-33.948-74.117-11.204c-1.724,6.895,6.895,29.733,23.269,40.075c16.375,10.342,47.113,39.5,70.669,40.075     C597.289,238.048,601.026,226.719,616.252,210.344z" />
			<path style="fill:#FD5479;" d="M630.903,178.457c0,17.236-10.916,27.004-14.938,35.622l-44.24-51.709     c0,0-84.459-64.924-83.309-73.542c1.149-8.618,17.811-1.149,18.385-2.873c0.414-1.253,1.115-2.172,2.034-2.804     c5.102-3.562,17.133,1.344,27.843,2.804c12.135,1.655,40.655,22.35,62.741,37.725c0.931,0.655,1.85,1.287,2.758,1.919     C624.583,141.111,630.903,161.22,630.903,178.457z" />
			<path style="fill:#E1394F;" d="M615.39,214.366c6.895-6.895,14.364-17.811,14.651-36.484     c0.265-17.234-11.635-31.313-34.042-46.826s-57.742-40.506-88.337-41.798c-0.575,1.724,64.062,73.111,64.062,73.111     L615.39,214.366z" />
			<path style="fill:#FD5479;" d="M621.423,200.002l-4.309,12.284c-5.814,13.789-29.302,23.913-54.295,15.295     c-9.365-3.229-22.97-9.365-36.863-16.593c-23.177-12.054-47.159-27.142-53.628-36.84c-10.342-15.513-10.342-24.131-6.033-31.026     c2.103-3.367,0.919-9.802,0.276-16.823h-0.012c-0.689-7.366-0.816-15.363,4.045-21.097c9.48-11.204,6.067-24.935,35.335-17.236     c26.579,6.998,51.457,24.717,77.564,43.091c1.425,1,2.919,2.057,4.47,3.183c11.25,8.136,25.303,19.523,32.094,34.002     c0.011,0.023,0.023,0.046,0.034,0.069C624.445,177.606,625.778,188.189,621.423,200.002z" />
			<path style="fill:#FF719E;" d="M570.001,134.791c-21.442-9.813-44.24-17.811-41.942-14.938     c2.298,2.873,9.354,6.171,26.429,16.662c20.109,12.353,37.932,33.496,29.302,26.429c-11.25-9.216-21.373-16.099-48.837-30.451     c-27.153-14.203-57.455-20.684-55.731-17.811c1.724,2.873,21.258,10.916,37.92,18.386c16.662,7.469,32.749,20.109,23.557,17.236     c-9.193-2.873-26.429-10.342-41.942-17.236c-13.571-6.033-21.867-5.47-32.186-6.768h-0.012     c-0.689-7.366-0.816-15.363,4.045-21.097c1.161-1.367,2.126-2.781,2.988-4.183c5.746-9.4,6.573-18.535,27.636-14.168     c1.471,0.299,3.034,0.678,4.711,1.115c26.579,6.998,51.457,24.717,77.564,43.091c1.425,1,13.502,9.767,17.524,15.226     C607.174,154.624,593.844,145.707,570.001,134.791z" />
			<path style="fill:#FF719E;" d="M485.829,128.184c-5.171-1.436-16.375,0-9.193,2.873c7.182,2.873,18.96,3.735,35.622,12.927     c16.662,9.193-3.16-7.182-12.353-11.778C490.713,127.609,485.829,128.184,485.829,128.184z" />
			<path style="fill:#E1394F;" d="M621.423,200.002l-4.309,12.284c-5.814,13.789-29.302,23.913-54.295,15.295     c-9.365-3.229-22.97-9.365-36.863-16.593c2.252-1.069,23.568,8.124,34.278,11.422c11.204,3.447,22.844-3.022,15.949-6.469     c-6.895-3.447-41.494-10.181-60.328-27.142c-4.321-3.884,14.214,5.608,20.247,8.182c6.033,2.597,39.207,15.088,46.102,10.779     c6.895-4.309-30.152-16.8-33.6-20.684c-3.447-3.884,27.142,9.055,37.483,13.789c4.137,1.896,11.204-3.447-21.12-19.397     c-6.446-3.183-19.167-9.25-20.684-10.767c-4.298-4.309,49.009,23.017,47.837,21.546c-23.706-29.739-56.019-38.357-62.051-42.229     c-6.033-3.872,40.069,8.618,63.35,31.887c12.709,12.709,14.214,10.779,13.353,3.884c-0.862-6.895-12.295-25.521-26.142-34.335     c-4.734-3.011,11.491,3.734,21.408,14.938c9.905,11.204,17.662,14.651,15.513,6.895c-2.16-7.756-15.513-22.407-10.778-20.247     c2.953,1.344,9.089,7.033,13.295,15.203c0.011,0.023,0.023,0.046,0.034,0.069C624.445,177.606,625.778,188.189,621.423,200.002z" />
			<path style="fill:#E1394F;" d="M511.397,175.009c-8.562-6.605,30.451,13.502,39.357,17.524     c8.906,4.022,18.386,8.331,20.109,10.342C572.586,204.886,531.506,190.522,511.397,175.009z" />
			<path style="fill:#FF719E;" d="M470.891,139.675c6.32,0,26.142,8.618,40.793,17.524s8.906,8.618,1.724,6.607     c-7.182-2.011-27.578-10.916-31.887-11.491c0,0,17.236,10.055,18.385,14.076c1.149,4.022-15.225-3.447-19.535-6.607     s-17.237-12.927-3.735-8.618c0,0-5.171-5.171,15.8,4.022C502.26,159.494,465.999,139.675,470.891,139.675z" />
			<path style="fill:#FFB1D8;" d="M557.223,120.289c-12.215-6.757-27.153-16.237-56.742-21.695     c-16.081-2.966-18.96-1.149-17.236-0.287c0.751,0.375,9.157,2.565,17.236,5.458c10.473,3.75,21.241,10.964,19.535,11.204     c-3.022,0.437-34.76-7.182-43.804-11.916c-0.988-0.517-1.862-1.207-2.62-2.034c5.746-9.4,6.113-16.846,27.176-12.479     C542.537,100.284,565.984,125.136,557.223,120.289z" />
			<path style="fill:#FFB1D8;" d="M470.891,116.405c4.62-0.33,22.982,6.895,26.429,10.342c3.447,3.447-10.342-1.149-16.375-3.16     C474.913,121.576,466.869,116.693,470.891,116.405z" />
			<path style="fill:#FF719E;" d="M587.524,118.991c-19.104-14.867-37.058-24.131-47.4-27.866     c-10.342-3.735-18.098-4.884-24.418-5.458c-2.976-0.264-5.504-1.31-6.872-2.517c5.102-3.562,17.133,1.344,27.843,2.804     c12.135,1.655,40.655,22.35,62.741,37.725C599.578,123.852,596.092,125.659,587.524,118.991z" />
		</g>
		
			<linearGradient id="SVGID_00000024680233707879403560000013413625978582266282_" gradientUnits="userSpaceOnUse" x1="600.1705" y1="203.6787" x2="612.2704" y2="214.8296">
			<stop offset="0" style="stop-color:#E1394F" />
			<stop offset="1" style="stop-color:#DECA6E" />
		</linearGradient>
		<path style="fill:url(#SVGID_00000024680233707879403560000013413625978582266282_);" d="M624.87,231.243    c-4.415-2.833-7.756-6.033-10.557-6.895s-6.033,1.724-6.033,1.724s-6.033,6.895-9.48,7.541c0,0,5.171-5.386,7.11-9.695    c0,0-10.126,4.525-18.314,3.016c0,0-5.602-1.077,1.939-3.016c7.541-1.939,12.496-3.232,16.159-4.956    c0,0-13.854,0.075-22.192-4.094c-3.016-1.508,4.74-0.646,11.635,0c6.895,0.646,12.065,0.215,12.065,0.215    s-13.358-9.696-13.574-11.85c-0.216-2.154,15.513,8.403,15.513,8.403s1.118-5.866-6.679-14.22    c-3.016-3.232,1.939-0.646,5.817,3.878c3.878,4.525,5.102,6.264,5.694,4.119c0.506-1.831,1.022-4.294,1.201-7.135    c0.195-3.111-0.472-7.316-1.077-10.342c-0.224-1.118,2.22,1.339,3.447,5.817c1.139,4.155,1.033,10.372,1.654,9.123    c2.061-4.147,4.71-9.721,5.24-11.708c0.862-3.232,0.646,6.679-1.939,14.651c-0.862,4.525,7.392,9.524,13.2,15.695    c2.495,2.651,0.363,7.623-8.167,2.722C631.707,230.77,626.818,232.493,624.87,231.243z" />
	</g>
	</svg>