<?xml version='1.0' encoding='utf-8'?>
<svg xmlns="http://www.w3.org/2000/svg" version="1.1" viewBox="308.020 304.988 185.883 652.407" width="250" height="877"><g id="tulips1">
		<g>
			<path style="fill:#7C832A;" d="M408.108,495.57c-2.42,8.928-16.2,19.42-15.427,40.04c0.507,13.538,1.684,29.263,3.284,46.662     c3.199,34.72,8.138,76.087,12.952,119.881c0.977,8.83,1.965,17.811,2.962,26.917c9.681,88.554,15.994,172.165-12.662,221.929     l-5.355-3.277l-9.247-5.652c25.968-45.111,19.734-125.563,10.386-211.038c-0.998-9.107-1.98-18.077-2.957-26.907     c-7.434-67.612-13.056-125.978-14.556-167.02c-0.826-22.786-6.595-37.482-12.202-48.044L408.108,495.57z" />
			
				<linearGradient id="SVGID_00000139274529079549748940000002282681551175854738_" gradientUnits="userSpaceOnUse" x1="348.5854" y1="359.9571" x2="363.6829" y2="325.2595" gradientTransform="matrix(0.8939 -0.4483 0.4483 0.8939 -79.8976 443.7974)">
				<stop offset="0" style="stop-color:#7C7E2A" />
				<stop offset="1" style="stop-color:#B1AB48" />
			</linearGradient>
			<path style="fill:url(#SVGID_00000139274529079549748940000002282681551175854738_);" d="M365.285,489.066     c5.613,10.562,11.376,25.26,12.207,48.035c0.353,9.679,1.478,21.184,2.917,33.424c1.588,13.503,3.56,27.9,5.302,41.724     c0.758,1.61,5.023-9.674,4.403-23.492c-0.52-11.597-5.173-24.674-4.713-25.96c2.145-6.005,4.705,6.333,6.335,5.211     c1.714-1.18,2.517-5.77,2.22-9.888c-0.58-8.033-1.016-15.559-1.276-22.506c-0.773-20.62,13.008-31.114,15.428-40.044     L365.285,489.066z" />
			
				<linearGradient id="SVGID_00000139982879963906883730000000447166453722746514_" gradientUnits="userSpaceOnUse" x1="276.9713" y1="524.713" x2="294.743" y2="483.8694" gradientTransform="matrix(0.8939 -0.4483 0.4483 0.8939 -79.8976 443.7974)">
				<stop offset="0" style="stop-color:#7C7E2A" />
				<stop offset="1" style="stop-color:#B1AB48" />
			</linearGradient>
			<path style="fill:url(#SVGID_00000139982879963906883730000000447166453722746514_);" d="M390.622,646.103     c2.699-2.17,8.593,43.049,9.745,54.203s9.968,82.974,6.939,90.416c-3.029,7.441-6.871-30.72-7.261-40.31     C399.655,740.822,387.208,648.847,390.622,646.103z" />
			<path style="fill:#686820;" d="M395.964,582.272c3.199,34.72,8.138,76.087,12.952,119.881c0.977,8.83,1.965,17.811,2.962,26.917     c9.681,88.554,15.994,172.165-12.662,221.929l-5.355-3.277c25.51-46.623,17.899-114.444,17.255-145.915     c-1.476-72.677-13.467-153.952-14.623-168.043C395.621,623.171,394.95,598.62,395.964,582.272z" />
		</g>
		<g>
			<path style="fill:#C51C30;" d="M357.265,421.649c-0.989-7.432-22.186-30.636-13.743-63.397     c2.373-9.207,6.671-33.151,20.466-34.733c6.415-0.736,9.122,7.687,13.539,4.408c1.194-0.886,2.615-1.885,4.691-2.082     c6.961-0.661,14.185,7.029,12.936,21.383c-1.249,14.355-15.871,68.261-19.155,74.529     C372.715,428.024,359.052,435.086,357.265,421.649z" />
			<path style="fill:#E1394F;" d="M390.613,472.301c-29.61,8.452-17-88.642-7.726-114.489c9.274-25.847,11.926-31.134,18.191-31.925     c6.265-0.79,15.742-14.503,26.963,1.729c4.011,5.802,8.728-5.491,15.758-0.802c7.031,4.689,16.917,16.224,9.732,42.46     C446.346,395.509,421.991,463.344,390.613,472.301z" />
			<path style="fill:#E1394F;" d="M432.687,404.855c1.512-6.004,19.017-51.995,33.097-58.235     c8.856-3.925,8.114,11.473,11.152,11.208c3.038-0.265,4.663-5.182,7.339-1.836c3.232,4.041-3.135,25.448-4.895,36.149     c-1.76,10.702-1.481,33.079-14.981,71.392c-6.019,17.082-37.911,54.849-76.644,54.635L432.687,404.855z" />
			<path style="fill:#C51C30;" d="M432.687,404.855c1.323-5.254,14.891-41.122,27.694-54.188     c1.829-1.867,15.814,23.863,9.007,48.271c2.672,12.001,3.197,28.05-11.446,63.689c-3.13,7.619-4.387,20.746-16.056,31.562     c-13.963,12.941-33.032,24.095-54.132,23.978L432.687,404.855z" />
			<path style="fill:#FD5479;" d="M464.295,373.501c8.659,45.136-18.87,101.799-25.945,113.29     c-7.075,11.491-37.43,32.405-55.657,32.688c-6.815,0.102-12.165-11.99-16.984-19.291c-4.818-7.301-19.578-74.09-14.033-95.235     c5.545-21.145,18.661-63.176,34.854-71.547c2.702-1.397,4.904-2.156,6.721-2.456c9.076-1.52,8.556,8.267,12.776,6.086     c5.06-2.616,13.624-10.085,20.251-1.329c3.55,4.693,8.599-7.448,18.232,3.631c0.182,0.219,0.38,0.391,0.578,0.537     C449.41,343.034,456.018,330.322,464.295,373.501z" />
			<path style="fill:#FF719E;" d="M445.088,339.876c5.195,11.004,10.341,28.417,2.395,53.088c-0.57,1.769-0.467-21.735-4.409-36.399     c-3.461-12.876-8.511-17.304-9.134-15.835c-1.318,3.123,4.759,3.898,6.313,39.325c1.555,35.427-12.088,55.209-7.566,24.801     c2.828-19.019-4.612-47.881-5.357-35.746c-1.014,16.479-8.908,11.942-8.728,5.491c0.633-22.313-8.77-31.697-8.77-31.697     s2.479,7.048,2.306,24.267c-0.173,17.219-8.073,42.009-7.924,39.347c0.739-13.112,2.493-33.928-1.71-51.34     c-0.324,2.702-4.33,7.009-5.564,4.835c-8.879-15.647-15.808-15.437-14.706-19.815c0.925-3.673,7.828-8.386,11.017-9.246     c9.076-1.52,8.556,8.267,12.776,6.086c5.06-2.616,13.624-10.085,20.251-1.329c3.55,4.693,8.599-7.448,18.232,3.631     C444.692,339.558,444.89,339.73,445.088,339.876z" />
			<path style="fill:#E1394F;" d="M387.036,499.119c-7.208,5.685-0.709-48.103,4.301-57.548c3.221-6.071-2.267,9.985,0.035,30.337     C392.495,481.84,390.475,496.407,387.036,499.119z" />
			<path style="fill:#E1394F;" d="M431.633,479.492c7.773-10.383,18.941-41.877,16.738-57.743     c-1.055-8.626-1.797,6.446-18.095,33.475c-11.206,18.585-27.804,38.124-23.89,28.996c17.8-41.515,15.3-69.109,12.637-73.607     c-2.663-4.498-4.328,33.572-29.822,71.475c-3.901,5.8-9.365-16.534-7.457-29.134c2.082-13.75,8.189-26.661,11.651-40.084     c3.279-12.713,5.555-26.354,2.365-39.327c-2.665-10.838-9.273-22.056-20.94-23.524c-0.882-0.111-1.59-0.453-2.159-0.919     c-0.183,0.24-0.349,0.484-0.491,0.734c-9.403,16.548-16.71,40.694-20.493,55.119c-5.545,21.145,9.214,87.934,14.033,95.235     c4.818,7.301,10.168,19.396,16.984,19.291c18.227-0.283,48.582-21.197,55.657-32.688c1.766-2.868,4.807-8.552,8.241-16.168     C436.574,483.792,430.256,481.332,431.633,479.492z" />
			<path style="fill:#C51C30;" d="M380.871,365.383c3.043,4.302,17.367,22.683,4.744,52.709     c-5.799,13.794-9.383,25.961-11.095,36.804c-1.395,8.835-0.553,21.013,2.245,32.085c1.243,4.919,5.506,8.148,6.748,2.454     c1.725-7.909,4.944-14.87,4.828-12.043c-0.17,4.14,0.868,11.876,1.98,16.734c0.363,1.588,4.88-4.293,8.47-10.875     c3.341-6.126,5.786-12.952,5.777-12.533c-0.362,15.854-5.584,28.624-9.51,35.12c-0.243,0.401,9.354-5.663,20.636-18.595     c13.444-15.409,14.376-23.928,16.206-24.289c1.745-0.345-4.253,14.963-10.793,26.142c-5.2,8.889-11.369,14.257-9.763,13.615     c16.701-6.675,26.233-17.922,25.234-16.471c-7.071,10.261-16.732,19.148-26.079,24.497c-22.105,12.651-28.142,8.545-28.66,8.451     c-9.116-1.653-37.554-48.07-37.554-48.07l7.647-64.989l19.832-35.385L380.871,365.383z" />
			<path style="fill:#FD5479;" d="M385.317,379.078c3.068,25.832-13.1,56.384-18.9,75.703c-5.634,18.749,17.86,50.746,13.688,63.831     c-0.126,0.392-0.272,0.768-0.449,1.133c-9.931-11.042-24.372-11.411-36.77-22.836c-3.107-2.872-6.093-6.433-8.838-11.033     c-7.072-11.855-13.342-27.453-16.69-45.659c-1.992-10.89-2.942-22.711-2.39-35.217c1.481-33.405,11.686-65.955,33.576-81.984     c6.071-4.444,5.326,8.344,9.126,10.949c1.48,1.011,3.574,3.493,5.359,6.695c2.796,4.991,4.828,11.722,2.516,17.304     C365.546,357.964,382.249,353.246,385.317,379.078z" />
			<path style="fill:#FF719E;" d="M363.03,340.66c-8.31,3.329-17.392,13.168-21.33,27.177c-1.689,6.004-5.597,15.806-7.19,26.251     c-2.503,16.439-2.448,32.952-3.3,27.191c-1-6.742-1.662-14.142-1.43-19.367c0.543-12.527,1.664-32.69,7.541-42.087     c0,0-14.237,13.718-15.329,41.7c-1.122,27.998-3.138,41.168-4.634,38.691c-1.992-10.89-2.942-22.711-2.39-35.217     c0.188-4.17,0.502-8.341,0.968-12.46c3.243-28.82,13.455-55.497,32.608-69.524c6.071-4.444,5.326,8.344,9.126,10.949     c0.223,0.146,0.456,0.339,0.699,0.552C359.774,335.737,361.513,337.932,363.03,340.66z" />
			<path style="fill:#FFB1D8;" d="M340.354,355.646c0.5-5.481,5.298-15.795,10.989-20.369c0,0-5.571-1.689-15.049,12.023     c-3.251,4.704-9.147,13.831-12.126,21.936c-5.706,15.521-7.621,30.202-8.231,23.304c3.243-28.82,13.455-55.497,32.608-69.524     c6.071-4.444,5.326,8.344,9.126,10.949c0.087,0.057-5.952,5.067-9.229,9.667C343.319,350.82,340.099,358.447,340.354,355.646z" />
			<path style="fill:#E1394F;" d="M365.546,357.964c-3.641-1.79-15.011,17.796-17.646,38.253c0,0,0.078-14.973,2.156-23.881     c2.334-10.002,6.053-20.265,11.08-24.087C366.163,344.425,366.617,353.493,365.546,357.964z" />
			<path style="fill:#E1394F;" d="M358.581,437.697c-0.189,2.553-4.925,9.89,0.5,26.425c4.242,12.93,7.515,9.089,17.038,35.011     c2.454,6.679,5.14,11.541,3.986,19.479c-0.126,0.392-0.272,0.768-0.449,1.133c-9.931-11.042-24.372-11.411-36.77-22.836     c-20.053-22.861-20.888-46.266-18.938-44c2.186,2.542,5.251,25.927,29.008,43.508c-12.266-13.485-13.853-28.245-12.664-29.925     c0.259-0.366,2.708,8.234,8.945,18.387c2.656,4.323,5.729,7.596,8.497,9.983c-6.881-8.126-9.709-18.456-7.533-20.995     c0.77-0.898,2.373-0.683,5.071,1.236C345.686,451.707,358.695,436.136,358.581,437.697z" />
			<path style="fill:#C51C30;" d="M379.845,519.483c3.509-3.527,1.627-6.562,0.273-10.667c-2-6.065-16.835-27.772-18.927-31.097     c-1.395-2.217,1.4,6.784,5.167,16.189c-12.859-18.333-9.895-0.526-1.151,8.663c-1.707,1.861-11.108-0.867-22.795-9.269     c7.987,10.559,20.143,15.046,25.842,17.486C371.128,512.905,376.915,514.776,379.845,519.483z" />
			<path style="fill:#FF719E;" d="M366.566,364.291c-3.762,4.186-13.263,24.482-13.416,56.385     c-0.041,8.497,11.739-28.59,13.625-39.357C368.662,370.551,369.031,361.548,366.566,364.291z" />
			<path style="fill:#FF719E;" d="M371.513,373.484c-4.207-1.44-12.309,28.395-5.283,29.169     C373.256,403.427,374.362,374.459,371.513,373.484z" />
			<path style="fill:#FFB1D8;" d="M429.326,344.577c-1.231-3.353-2.364-6.28-3.902-8.108c-5.355-6.364-10.242-2.475-11.805-1.398     c-1.431,0.986,8.362,6.775,9.273,28.173c0.211,4.955,5.06-2.616,2.255-16.149c10.403,16.786,10.509,40.353,11.216,35.705     C437.118,377.84,436.334,356.866,429.326,344.577z" />
			<path style="fill:#FFB1D8;" d="M394.644,332.035c3.006-1.259,5.301,1.287,7.492,5.79c1.808,3.717,3.48,8.666,1.815,10.078     C400.252,351.039,390.834,333.631,394.644,332.035z" />
			<path style="fill:#FF719E;" d="M453.251,345.592c1.693,3.48,8.884,20.866,9.163,42.917c0.279,22.051-6.031,39.021-7.674,40.85     c-1.643,1.829,2.388-15.269,0.843-37.319c-1.149-16.4-2.562-26.746-7.499-26.479c-0.89-3.783-4.329-22.568-4.329-22.568     S449.698,338.289,453.251,345.592z" />
			<path style="fill:#FFB1D8;" d="M440.299,337.191c3.609,1.072,7.223,7.037,8.847,15.745c1.624,8.708,0.364,13.602-0.174,13.799     C448.434,366.931,445.811,342.176,440.299,337.191z" />
		</g>
		
			<linearGradient id="SVGID_00000010989157974216992110000000782429936574444435_" gradientUnits="userSpaceOnUse" x1="397.956" y1="257.0182" x2="385.1133" y2="272.196" gradientTransform="matrix(0.8939 -0.4483 0.4483 0.8939 -79.8976 443.7974)">
			<stop offset="0" style="stop-color:#C51C30" />
			<stop offset="1" style="stop-color:#DECA6E" />
		</linearGradient>
		<path style="fill:url(#SVGID_00000010989157974216992110000000782429936574444435_);" d="M377.071,529.077    c-0.32-3.099-0.066-3.634-0.83-6.588c-0.573-2.215-1.059-4.243-2.665-5.64c-6.177-5.375-11.243-8.015-9.733-7.504    c3.397,1.151,9.504,3.391,8.57,1.25c-1.736-3.98-3.933-9.671-2.3-9.673c1.596-0.002,4.416,5.64,6.26,9.755    c1.058,2.361,0.341-11.313-0.542-15.066c-0.884-3.754,8.004,9.767,5.851,16.82c0.111-5.867,2.523-13.321,4.531-15.006    s-0.639,13.318-0.639,13.318s4.637-8.551,7.651-9.461c3.013-0.91-1.871,11.007-1.871,11.007s7.561-1.396,14.81-9.599    c1.568-1.774-0.491,3.612-3.48,7.762c-2.032,2.822-5.55,4.729-4.546,4.761c2.48,0.079,6.405-0.411,12.182-2.688    c2.636-1.039-3.764,3.889-10.543,6.745c-3.522,1.484-5.055,3.354-5.865,5.458c-0.749,1.946-0.88,4.093-1.395,6.32    c0,0-2.079,8.745-5.279,4.606c-1.079-1.395-1.497-8.773-4.726-9.226C379.803,526.048,377.191,530.244,377.071,529.077z" />
	</g>
</svg>