<?xml version='1.0' encoding='utf-8'?>
<svg xmlns="http://www.w3.org/2000/svg" version="1.1" viewBox="413.276 971.128 392.936 701.987" width="250" height="447"><g id="tulips6">
		<g>
			<path style="fill:#7C832A;" d="M795.302,1658.55c-0.137,3.405-2.375,6.228-5.423,7.256c-0.659,0.231-1.356,0.368-2.091,0.411     c-0.271,0.016-0.528,0.015-0.8,0.015c-4.417-0.189-7.856-3.897-7.666-8.315c6.038-150.731,2.742-320.174-67.439-434     c-37.4-60.647-68.74-82.185-100.217-100.607c-3.816-2.228-5.098-7.135-2.869-10.936c2.244-3.817,7.136-5.097,10.952-2.87     c3.55,2.067,7.121,4.213,10.73,6.453c12.023,7.466,24.437,16.143,37.33,27.788c6.125,5.537,12.371,11.756,18.747,18.832     c12.479,13.865,25.424,31.035,38.935,52.946c31.679,51.353,52.251,116.016,62.923,197.652     C797.141,1479.961,799.33,1557.929,795.302,1658.55z" />
			
				<linearGradient id="SVGID_1_" gradientUnits="userSpaceOnUse" x1="710.6268" y1="1197.5693" x2="683.4349" y2="1151.9829" gradientTransform="matrix(0.9983 -0.0586 0.0586 0.9983 -79.3116 62.5881)">
				<stop offset="0" style="stop-color:#7C7E2A" />
				<stop offset="1" style="stop-color:#B1AB48" />
			</linearGradient>
			<path style="fill:url(#SVGID_1_);" d="M707.266,1211.579c-4.365-6.393-17.483-26.517-32.715-40.333     c-15.233-13.831-24.284-24.724-33.341-30.794c-9.074-6.085-17.522-11.886-17.522-11.886s2.899-7.396,6.791-12.608     c12.023,7.466,24.437,16.143,37.33,27.788c-0.195,1.87-9.908-0.436-8.556,0.55c7.115,5.19,15.809,15.191,29.75,32.399     c13.924,17.209,37.995,58.77,41.1,65.798C733.223,1249.52,719.098,1228.91,707.266,1211.579z" />
			
				<linearGradient id="SVGID_00000182525613970477924940000017267939469899417239_" gradientUnits="userSpaceOnUse" x1="748.9177" y1="1249.1732" x2="774.1155" y2="1406.8627" gradientTransform="matrix(0.9983 -0.0586 0.0586 0.9983 -79.3116 62.5881)">
				<stop offset="0" style="stop-color:#7C7E2A" />
				<stop offset="1" style="stop-color:#B1AB48" />
			</linearGradient>
			<path style="fill:url(#SVGID_00000182525613970477924940000017267939469899417239_);" d="M738.045,1258.242     c0,0,23.43,44.291,32.582,91.021c9.152,46.731,14.594,108.659,15.214,115.875c1.899,22.12,0.335,43.243-0.182,48.08     c-0.517,4.837-1.101-22.167-4.947-60.397s-12.525-117.836-42.715-181.758L738.045,1258.242z" />
			<path style="fill:#686820;" d="M795.302,1658.55c-0.137,3.405-2.375,6.228-5.423,7.256c1.137-18.029,4.396-81.799,0.267-175.084     c-4.917-111.072-20.503-158.226-38.719-209.232c-18.216-51.006-57.001-111.219-66.252-118.688l1.381-0.225     c12.479,13.865,25.424,31.035,38.935,52.946c31.679,51.353,52.251,116.016,62.923,197.652     C797.141,1479.961,799.33,1557.929,795.302,1658.55z" />
		</g>
		<g>
			<path style="fill:#FFD41B;" d="M463.094,989.603c-4.907,5.519-0.635,11.621-4.852,14.551c-8.224,5.714,4.514,12.099,0.89,15.165     c-3.624,3.066-12.209-5.465-17.701-1.814c-5.492,3.651-0.336,10.481-3.04,13.018c-2.704,2.536-14.273-0.113-16.253,6.66     c-1.98,6.774,7.055,18.867,13.378,25.37c25.81,26.542,110.439,58.666,126.525,49.162c16.086-9.504,20.414-39.752,8.565-56.616     C521.831,985.68,468.001,984.084,463.094,989.603z" />
			<path style="fill:#FFAF0D;" d="M463.094,989.603c-4.907,5.519-0.635,11.621-4.852,14.551c-8.224,5.714,4.514,12.099,0.89,15.165     c-3.624,3.066-12.108,1.662-12.833,5.509c-1.222,6.481,5.917,14.394,3.213,16.931c-2.704,2.536-12.981-2.408-14.961,4.366     c-1.98,6.774,5.568,17.845,11.891,24.347c25.81,26.542,99.513,50.748,115.599,41.244c16.086-9.504,20.414-39.752,8.565-56.616     C521.831,985.68,468.001,984.084,463.094,989.603z" />
			<path style="fill:#FFAF0D;" d="M624.066,1115.208c-5.299,23.137-20.466,40.195-65.069,41.862     c-44.603,1.667-100.519-27.387-119.195-37.704c-8.951-4.94-10.369-8.141-9.989-10.954c0.406-3.029,2.93-5.599,0.235-9.398     c-5.184-7.304-8.781-15.869-4.123-21.633c1.773-2.197,3.806-3.647,5.955-4.623c8.596-3.916,18.867-0.258,20.027-6.413     c4.788-25.377,53.133-2.168,82.235,7.537C563.243,1083.588,605.054,1115.373,624.066,1115.208z" />
			<path style="fill:#FFD41B;" d="M493.607,1136.649c-19.686-3.118-36.712-9.727-51.554-19.318     c-4.455-2.883-8.575-5.875-12.241-8.919c0.406-3.029,2.93-5.599,0.235-9.398c-5.184-7.304-8.781-15.869-4.123-21.633     c1.773-2.197,3.806-3.647,5.955-4.623c0.78,2.909,3.636,6.85,7.759,11.427c22.382,24.847,34.96,28.389,40.863,31.84     c4.424,2.587-26.426-4.631-36.733-18.298c0,0,0.996,8.983,19.784,21.195C482.339,1131.135,495.591,1136.977,493.607,1136.649z" />
			<path style="opacity:0.6;fill:#FFFF73;" d="M425.366,1080.03c0.281-1.688,1.727,9.172,13.085,20.393     c8.431,8.329,13.993,11.543,14.564,13.174s-15.888-11.431-19.372-14.08C430.159,1096.868,423.608,1090.595,425.366,1080.03z" />
			<path style="opacity:0.6;fill:#FFFF73;" d="M434.298,1102.569c3.345,0.279,7.303,2.9,11.526,5.981s12.404,8.783,10.578,10.079     c-1.826,1.296-21.784-10.61-23.554-12.408C431.078,1104.423,434.298,1102.569,434.298,1102.569z" />
			<path style="fill:#EB8A0F;" d="M624.066,1115.208c-19.012,0.165-60.823-31.62-89.924-41.324     c-29.102-9.705-77.45-32.918-82.235-7.537c-1.451,7.694,9.502,32.254,28.178,42.571c18.676,10.317,54.363,40.4,80.307,39.511     C604.999,1146.9,608.378,1134.199,624.066,1115.208z" />
			<path style="fill:#FFD41B;" d="M638.12,1079.193c1.113,18.956-10.262,30.403-14.129,40.141l-51.992-54.013     c0,0-97.076-65.95-96.369-75.502c0.707-9.552,19.514-2.414,20.035-4.346c0.374-1.404,1.086-2.46,2.056-3.215     c5.381-4.247,18.929,0.372,30.802,1.286c13.452,1.036,46.154,21.955,71.436,37.439c1.066,0.66,2.118,1.296,3.157,1.932     C628.759,1038.529,637.008,1060.237,638.12,1079.193z" />
			<path style="fill:#FFAF0D;" d="M623.378,1119.686c7.137-8.027,14.647-20.515,13.758-41.07     c-0.821-18.971-14.817-33.686-40.461-49.3c-25.645-15.614-66.118-40.82-99.849-40.267c-0.521,1.933,75.173,76.271,75.173,76.271     L623.378,1119.686z" />
			<path style="fill:#FFD41B;" d="M629.085,1103.5l-3.946,13.787c-5.504,15.54-30.682,28.19-58.725,20.325     c-10.508-2.947-25.867-8.817-41.612-15.869c-26.268-11.76-53.616-26.806-61.357-37.054     c-12.375-16.393-12.931-25.871-8.638-33.732c2.095-3.839,0.378-10.839-0.783-18.519l-0.013,0.001     c-1.234-8.056-1.889-16.844,3.087-23.463c9.703-12.934,5.063-27.815,37.747-21.237c29.682,5.98,58.186,23.862,88.085,42.384     c1.632,1.007,3.343,2.074,5.122,3.212c12.897,8.221,29.088,19.838,37.491,35.323c0.014,0.025,0.028,0.049,0.042,0.073     C630.963,1078.675,633.112,1090.228,629.085,1103.5z" />
			<path style="fill:#FFFF73;" d="M568.323,1035.102c-24.215-9.408-49.804-16.732-47.091-13.721     c2.713,3.011,10.685,6.183,30.142,16.618c22.913,12.287,43.879,34.39,33.932,27.175c-12.967-9.409-24.545-16.325-55.675-30.337     c-30.779-13.867-64.522-19.039-62.441-15.99c2.081,3.048,24.084,10.633,42.891,17.772c18.806,7.139,37.315,20.001,27.019,17.435     c-10.295-2.566-29.734-9.668-47.239-16.249c-15.314-5.759-24.402-4.604-35.835-5.366l-0.013,0.001     c-1.234-8.056-1.889-16.844,3.087-23.463c1.188-1.579,2.158-3.196,3.016-4.793c5.712-10.708,6.032-20.808,29.478-17.366     c1.637,0.234,3.38,0.55,5.253,0.922c29.682,5.98,58.186,23.862,88.085,42.384c1.632,1.007,15.48,9.87,20.255,15.613     C610.485,1054.515,595.25,1045.568,568.323,1035.102z" />
			<path style="fill:#FFFF73;" d="M475.327,1033.269c-5.78-1.246-18.008,1.057-9.924,3.753c8.084,2.696,21.093,2.883,40.011,11.918     c18.918,9.034-3.939-7.694-14.346-12.156C480.661,1032.322,475.327,1033.269,475.327,1033.269z" />
			<path style="fill:#FFAF0D;" d="M629.085,1103.5l-3.946,13.787c-5.504,15.54-30.682,28.19-58.725,20.325     c-10.508-2.947-25.867-8.817-41.612-15.869c2.408-1.321,26.444,7.413,38.435,10.349c12.544,3.068,24.928-4.798,17.123-8.144     s-46.291-8.518-68.099-25.955c-5.002-3.993,15.995,5.25,22.795,7.691c6.802,2.467,44.093,14.062,51.397,8.878     s-34.245-16.53-38.287-20.578c-4.042-4.049,30.434,8.206,42.114,12.745c4.672,1.818,12.099-4.514-24.48-19.969     c-7.295-3.084-21.676-8.936-23.443-10.506c-5.005-4.462,55.385,22.149,54.001,20.607c-27.991-31.176-64.084-38.568-70.968-42.437     c-6.885-3.869,44.623,6.892,71.729,30.98c14.797,13.157,16.328,10.936,14.935,3.41c-1.393-7.527-15.17-27.274-30.967-36.073     c-5.401-3.005,12.878,3.365,24.508,15.047c11.617,11.682,20.37,14.973,17.506,6.581c-2.877-8.391-18.507-23.642-13.161-21.571     c3.335,1.288,10.45,7.147,15.603,15.861c0.014,0.025,0.028,0.049,0.042,0.073C630.963,1078.675,633.112,1090.228,629.085,1103.5z     " />
			<path style="fill:#FFAF0D;" d="M506.468,1083.116c-9.843-6.711,34.361,12.883,44.415,16.732     c10.054,3.848,20.758,7.975,22.783,10.076C575.691,1112.024,529.585,1098.879,506.468,1083.116z" />
			<path style="opacity:0.6;fill:#FFFF73;" d="M459.64,1046.871c6.951-0.408,29.307,7.791,45.994,16.639     c16.688,8.848,10.35,8.903,2.322,7.155c-8.028-1.748-31.035-10.225-35.811-10.579c0,0,19.605,9.945,21.129,14.294     c1.523,4.349-16.967-2.808-21.91-6.006c-4.943-3.197-19.791-13.104-4.664-9.237c0,0-6.021-5.353,17.636,3.403     C495.418,1066.642,454.26,1047.186,459.64,1046.871z" />
			<path style="fill:#FFFFB6;" d="M553.334,1019.978c-13.87-6.642-30.911-16.104-63.804-20.197     c-17.877-2.224-20.926-0.04-18.975,0.797c0.85,0.364,10.236,2.23,19.309,4.89c11.76,3.448,24.068,10.686,22.207,11.06     c-3.296,0.675-38.692-5.655-48.943-10.277c-1.12-0.505-2.125-1.207-3.013-2.068c5.712-10.708,5.636-18.921,29.082-15.478     C535.892,998.924,563.282,1024.743,553.334,1019.978z" />
			<path style="fill:#FFFFB6;" d="M458.138,1021.28c5.06-0.661,25.72,6.099,29.734,9.668s-11.448-0.596-18.212-2.418     C462.895,1026.707,453.733,1021.855,458.138,1021.28z" />
			<path style="fill:#FFFF73;" d="M586.575,1016.594c-21.97-15.116-42.314-24.146-53.928-27.586     c-11.615-3.44-20.219-4.203-27.207-4.427c-3.29-0.099-6.138-1.085-7.72-2.324c5.381-4.247,18.929,0.372,30.802,1.286     c13.452,1.036,46.154,21.955,71.436,37.439C600.145,1021.162,596.428,1023.374,586.575,1016.594z" />
		</g>
		
			<linearGradient id="SVGID_00000012470753215248221950000009481529633285101989_" gradientUnits="userSpaceOnUse" x1="622.7584" y1="1084.6648" x2="636.0883" y2="1096.9492" gradientTransform="matrix(0.9983 -0.0586 0.0586 0.9983 -79.3116 62.5881)">
			<stop offset="0" style="stop-color:#FFAF0D" />
			<stop offset="1" style="stop-color:#DECA6E" />
		</linearGradient>
		<path style="fill:url(#SVGID_00000012470753215248221950000009481529633285101989_);" d="M634.893,1137.636    c-5.039-2.83-8.92-6.134-12.056-6.901c-3.136-0.767-6.523,2.285-6.523,2.285s-6.19,7.972-9.939,8.905    c0,0,5.339-6.258,7.193-11.122c0,0-10.845,5.63-19.946,4.5c0,0-6.23-0.823,1.938-3.443c8.168-2.619,13.535-4.361,17.452-6.493    c0,0-15.232,0.977-24.67-3.07c-3.415-1.464,5.171-1.017,12.795-0.751c7.624,0.266,13.283-0.542,13.283-0.542    s-15.317-9.801-15.693-12.156c-0.376-2.356,17.603,8.24,17.603,8.24s0.851-6.524-8.263-15.208c-3.526-3.36,2.091-0.836,6.648,3.89    c4.557,4.726,6.015,6.56,6.528,4.162c0.438-2.046,0.847-4.789,0.86-7.925c0.014-3.434-0.992-8.016-1.852-11.304    c-0.318-1.215,2.528,1.329,4.167,6.175c1.52,4.496,1.806,11.34,2.408,9.927c1.999-4.694,4.553-10.995,5.007-13.215    c0.739-3.61,1.142,7.304-1.187,16.238c-0.656,5.032,8.745,9.997,15.53,16.408c2.915,2.754,0.891,8.36-8.806,3.521    C642.382,1136.674,637.116,1138.884,634.893,1137.636z" />
	</g>
	</svg>