<?xml version='1.0' encoding='utf-8'?>
<svg xmlns="http://www.w3.org/2000/svg" version="1.1" viewBox="232.626 1169.423 211.964 712.563" width="250" height="840"><g id="tulips4">
		<g>
			<path style="fill:#7C832A;" d="M345.599,1377.537c-2.856,9.727-18.683,21.037-18.025,43.574     c0.431,14.796,1.603,31.988,3.238,51.014c3.271,37.967,8.454,83.216,13.469,131.115c1.018,9.658,2.047,19.48,3.086,29.44     c10.079,96.853,16.371,188.268-16.844,242.319l-6.071-3.639l-10.482-6.276c30.099-48.997,23.863-136.961,14.13-230.447     c-1.039-9.96-2.062-19.771-3.08-29.429c-7.744-73.949-13.52-137.776-14.786-182.632c-0.695-24.903-7.113-41.022-13.392-52.624     L345.599,1377.537z" />
			
				<linearGradient id="SVGID_00000125602885176203687320000009068136553599555775_" gradientUnits="userSpaceOnUse" x1="-69.6745" y1="1050.4224" x2="-53.1727" y2="1012.4971" gradientTransform="matrix(0.8982 -0.4395 0.4395 0.8982 -72.1456 527.4962)">
				<stop offset="0" style="stop-color:#7C7E2A" />
				<stop offset="1" style="stop-color:#B1AB48" />
			</linearGradient>
			<path style="fill:url(#SVGID_00000125602885176203687320000009068136553599555775_);" d="M296.841,1369.958     c6.286,11.601,12.697,27.723,13.398,52.614c0.298,10.578,1.455,23.16,2.964,36.548c1.665,14.77,3.756,30.521,5.593,45.642     c0.847,1.767,5.832-10.514,5.276-25.617c-0.467-12.676-5.631-27.014-5.093-28.414c2.511-6.537,5.296,6.971,7.167,5.764     c1.967-1.27,2.933-6.276,2.639-10.778c-0.574-8.783-0.989-17.01-1.211-24.602c-0.658-22.537,15.169-33.849,18.026-43.578     L296.841,1369.958z" />
			
				<linearGradient id="SVGID_00000141425192577725735250000007352482142439241648_" gradientUnits="userSpaceOnUse" x1="-147.4357" y1="1230.7039" x2="-128.0134" y2="1186.0668" gradientTransform="matrix(0.8982 -0.4395 0.4395 0.8982 -72.1456 527.4962)">
				<stop offset="0" style="stop-color:#7C7E2A" />
				<stop offset="1" style="stop-color:#B1AB48" />
			</linearGradient>
			<path style="fill:url(#SVGID_00000141425192577725735250000007352482142439241648_);" d="M324.029,1541.802     c3.102-2.34,9.332,47.126,10.524,59.325s10.467,90.76,6.932,98.856c-3.535,8.096-7.501-33.638-7.842-44.119     C333.302,1645.383,320.106,1544.763,324.029,1541.802z" />
			<path style="fill:#686820;" d="M330.813,1472.126c3.271,37.967,8.454,83.216,13.469,131.115c1.018,9.658,2.047,19.48,3.086,29.44     c10.079,96.853,16.371,188.268-16.844,242.319l-6.071-3.639c29.594-50.655,21.65-124.833,21.257-159.223     c-0.895-79.416-13.687-168.343-14.851-183.75C329.978,1516.804,329.479,1489.975,330.813,1472.126z" />
		</g>
		<g>
			<path style="fill:#FFAF0D;" d="M288.427,1296.216c-1.047-8.13-24.966-33.715-14.983-69.414     c2.805-10.032,7.966-36.144,23.713-37.72c7.322-0.733,10.319,8.499,15.39,4.966c1.371-0.955,3.002-2.03,5.371-2.223     c7.945-0.645,16.098,7.836,14.518,23.504c-1.58,15.669-18.837,74.401-22.649,81.212     C305.975,1303.351,290.32,1310.917,288.427,1296.216z" />
			<path style="fill:#FFAF0D;" d="M325.903,1351.922c-33.854,8.907-18.423-97.03-7.568-125.165     c10.855-28.135,13.936-33.883,21.088-34.678c7.152-0.794,18.107-15.67,30.726,2.186c4.511,6.383,10.011-5.903,17.977-0.702     c7.966,5.2,19.113,17.912,10.637,46.495C390.286,1268.642,361.779,1342.483,325.903,1351.922z" />
			<path style="fill:#FFAF0D;" d="M374.609,1278.702c1.789-6.543,22.248-56.595,38.37-63.257     c10.141-4.191,9.128,12.623,12.594,12.368c3.467-0.256,5.373-5.61,8.389-1.925c3.642,4.451-3.851,27.767-5.974,39.44     c-2.123,11.672-2.047,36.123-17.856,77.831c-7.048,18.596-43.822,59.504-87.986,58.843L374.609,1278.702z" />
			<path style="fill:#DE810F;" d="M374.609,1278.702c1.566-5.725,17.425-44.762,32.166-58.895     c2.106-2.019,17.773,26.245,9.747,52.836c2.916,13.141,3.341,30.68-13.742,69.455c-3.652,8.289-5.227,22.617-18.65,34.304     c-16.061,13.984-37.926,25.959-61.983,25.599L374.609,1278.702z" />
			<path style="fill:#FFD41B;" d="M410.991,1244.796c9.384,49.407-22.62,111.008-30.813,123.484     c-8.192,12.476-43.031,34.99-63.817,35.098c-7.772,0.036-13.742-13.233-19.156-21.263c-5.415-8.03-21.521-81.16-14.968-104.2     c6.552-23.04,21.964-68.814,40.518-77.78c3.096-1.496,5.615-2.302,7.69-2.609c10.366-1.56,9.666,9.127,14.502,6.79     c5.798-2.802,15.643-10.867,23.106-1.229c3.997,5.166,9.886-8.042,20.749,4.168c0.206,0.241,0.429,0.431,0.653,0.593     C394.348,1211.346,402.021,1197.531,410.991,1244.796z" />
			<path style="fill:#FFFF73;" d="M389.454,1207.848c5.804,12.079,11.483,31.16,2.155,58.025     c-0.669,1.927-0.297-23.751-4.632-39.815c-3.807-14.106-9.517-18.999-10.244-17.4c-1.537,3.397,5.384,4.311,6.772,43.032     c1.388,38.721-14.382,60.182-8.896,27.012c3.431-20.747-4.739-52.362-5.721-39.112c-1.335,17.992-10.286,12.948-10.011,5.903     c0.963-24.37-9.657-34.726-9.657-34.726s2.75,7.728,2.366,26.537c-0.384,18.81-9.661,45.807-9.462,42.9     c0.985-14.317,3.21-37.04-1.393-56.108c-0.399,2.948-5.014,7.609-6.397,5.22c-9.954-17.193-17.858-17.04-16.553-21.811     c1.094-4.002,9.016-9.076,12.662-9.98c10.366-1.56,9.666,9.127,14.502,6.79c5.798-2.802,15.643-10.867,23.106-1.229     c3.997,5.166,9.886-8.042,20.749,4.168C389.006,1207.497,389.23,1207.687,389.454,1207.848z" />
			<path style="fill:#FFAF0D;" d="M321.534,1381.182c-8.281,6.131-0.287-52.561,5.528-62.824c3.738-6.597-2.693,10.883-0.289,33.144     C327.946,1362.365,325.485,1378.257,321.534,1381.182z" />
			<path style="fill:#FFAF0D;" d="M372.598,1360.232c8.975-11.258,22.051-45.542,19.712-62.9c-1.11-9.435-2.119,7.022-20.996,36.372     c-12.979,20.181-32.117,41.344-27.555,31.415c20.747-45.159,18.195-75.333,15.207-80.277c-2.988-4.944-5.299,36.63-34.78,77.758     c-4.511,6.293-10.499-18.167-8.187-31.911c2.523-14.999,9.626-29.037,13.719-43.663c3.877-13.853,6.62-28.731,3.123-42.939     c-2.921-11.87-10.335-24.199-23.622-25.932c-1.005-0.131-1.808-0.512-2.451-1.028c-0.212,0.26-0.403,0.525-0.568,0.797     c-10.901,17.975-19.494,44.274-23.964,59.992c-6.552,23.04,9.553,96.17,14.968,104.2c5.415,8.03,11.384,21.303,19.156,21.263     c20.786-0.108,55.625-22.622,63.817-35.098c2.045-3.114,5.574-9.29,9.572-17.573     C378.186,1364.984,371.008,1362.227,372.598,1360.232z" />
			<path style="fill:#DE810F;" d="M315.954,1235.005c3.423,4.734,19.557,24.973,4.838,57.637     c-6.762,15.006-10.981,28.259-13.05,40.087c-1.686,9.637-0.858,22.951,2.212,35.078c1.364,5.387,6.19,8.963,7.668,2.755     c2.052-8.621,5.799-16.191,5.636-13.104c-0.239,4.521,0.861,12.984,2.076,18.304c0.397,1.739,5.611-4.636,9.775-11.787     c3.876-6.656,6.738-14.086,6.723-13.629c-0.584,17.317-6.678,31.21-11.225,38.263c-0.281,0.436,10.727-6.084,23.732-20.087     c15.496-16.686,16.652-25.983,18.742-26.358c1.994-0.357-5.012,16.3-12.59,28.441c-6.025,9.654-13.118,15.45-11.279,14.766     c19.115-7.108,30.107-19.29,28.951-17.717c-8.174,11.132-19.287,20.735-30.002,26.475c-25.342,13.577-32.182,9.025-32.772,8.916     c-10.376-1.906-42.3-52.931-42.3-52.931l9.424-70.917l22.997-38.439L315.954,1235.005z" />
			<path style="fill:#FFD41B;" d="M320.875,1250.017c3.218,28.255-15.548,61.456-22.372,82.497     c-6.628,20.422,19.815,55.638,14.915,69.887c-0.148,0.426-0.319,0.835-0.525,1.233c-11.204-12.174-27.666-12.736-41.679-25.355     c-3.512-3.172-6.878-7.096-9.957-12.151c-7.935-13.03-14.916-30.14-18.536-50.067c-2.154-11.92-3.109-24.844-2.343-38.501     c2.051-36.479,14.04-71.927,39.174-89.197c6.97-4.788,5.982,9.175,10.288,12.063c1.676,1.12,4.037,3.855,6.038,7.373     c3.134,5.484,5.379,12.86,2.681,18.933C298.56,1226.731,317.657,1221.761,320.875,1250.017z" />
			<path style="fill:#FFFF73;" d="M295.879,1207.798c-9.511,3.546-19.974,14.195-24.616,29.455     c-1.991,6.541-6.553,17.206-8.483,28.6c-3.032,17.932-3.149,35.974-4.058,29.67c-1.067-7.377-1.741-15.469-1.42-21.174     c0.755-13.68,2.251-35.696,9.055-45.897c0,0-16.382,14.83-17.931,45.388c-1.583,30.575-4.024,44.942-5.703,42.219     c-2.154-11.92-3.109-24.844-2.343-38.501c0.259-4.554,0.663-9.107,1.239-13.601c4.01-31.45,15.944-60.483,37.935-75.596     c6.97-4.788,5.982,9.175,10.288,12.063c0.253,0.162,0.516,0.375,0.791,0.611C292.22,1202.384,294.179,1204.802,295.879,1207.798z     " />
			<path style="fill:#FFFFB6;" d="M269.861,1223.921c0.63-5.982,6.213-17.198,12.751-22.132c0,0-6.335-1.907-17.29,12.969     c-3.758,5.103-10.58,15.01-14.065,23.831c-6.674,16.894-9.018,32.912-9.638,25.369c4.01-31.45,15.944-60.483,37.935-75.596     c6.97-4.788,5.982,9.175,10.288,12.063c0.099,0.063-6.841,5.47-10.628,10.459     C273.294,1218.682,269.539,1226.978,269.861,1223.921z" />
			<path style="fill:#FFAF0D;" d="M298.56,1226.731c-4.132-1.995-17.309,19.277-20.535,41.597c0,0,0.251-16.357,2.717-26.066     c2.769-10.901,7.121-22.073,12.895-26.193S299.83,1221.859,298.56,1226.731z" />
			<path style="fill:#FFAF0D;" d="M289.754,1313.763c-0.244,2.786-5.723,10.75,0.283,28.875     c4.697,14.172,8.471,10.013,19.048,38.438c2.726,7.324,5.735,12.666,4.333,21.325c-0.148,0.426-0.319,0.835-0.525,1.233     c-11.204-12.174-27.666-12.736-41.679-25.355c-22.618-25.197-23.316-50.777-21.117-48.28c2.465,2.801,5.706,28.383,32.605,47.853     c-13.84-14.868-15.49-31.011-14.116-32.833c0.3-0.397,2.999,9.026,10,20.187c2.981,4.753,6.45,8.362,9.58,11.001     c-7.758-8.954-10.87-20.27-8.362-23.021c0.887-0.973,2.713-0.72,5.769,1.407C274.898,1328.927,289.901,1312.059,289.754,1313.763     z" />
			<path style="fill:#DE810F;" d="M313.113,1403.35c4.039-3.815,1.926-7.151,0.426-11.651c-2.215-6.648-18.895-30.527-21.245-34.183     c-1.567-2.437,1.523,7.427,5.716,17.744c-14.463-20.171-11.278-0.683-1.406,9.451c-1.966,2.015-12.657-1.07-25.891-10.378     c8.992,11.624,22.805,16.661,29.277,19.389C303.245,1396.067,309.823,1398.176,313.113,1403.35z" />
			<path style="fill:#FFFF73;" d="M299.655,1233.655c-4.335,4.532-15.388,26.6-15.909,61.453     c-0.139,9.283,13.695-31.105,15.963-42.847C301.977,1240.518,302.495,1230.685,299.655,1233.655z" />
			<path style="fill:#FFFF73;" d="M305.196,1243.753c-4.781-1.619-14.343,30.886-6.34,31.809     C306.859,1276.486,308.434,1244.85,305.196,1243.753z" />
			<path style="fill:#FFFFB6;" d="M371.431,1212.81c-1.367-3.676-2.627-6.887-4.361-8.901c-6.037-7.012-11.651-2.817-13.445-1.657     c-1.643,1.062,9.461,7.494,10.267,30.881c0.187,5.416,5.798-2.802,2.747-17.618c11.68,18.453,11.546,44.202,12.402,39.132     C379.954,1249.237,379.288,1226.314,371.431,1212.81z" />
			<path style="fill:#FFFFB6;" d="M332.02,1198.725c3.441-1.342,6.031,1.464,8.48,6.408c2.021,4.08,3.874,9.506,1.961,11.03     C338.209,1219.548,327.659,1200.426,332.02,1198.725z" />
			<path style="fill:#FFFF73;" d="M398.7,1214.183c1.892,3.82,9.904,22.895,9.983,46.989s-7.3,42.565-9.194,44.544     c-1.894,1.98,2.888-16.655,1.366-40.762c-1.132-17.93-2.632-29.248-8.263-29.011c-0.974-4.143-4.692-24.704-4.692-24.704     S394.728,1206.165,398.7,1214.183z" />
			<path style="fill:#FFFFB6;" d="M384.022,1204.862c4.103,1.211,8.16,7.768,9.917,17.299c1.757,9.531,0.267,14.865-0.348,15.073     C392.976,1237.443,390.253,1210.369,384.022,1204.862z" />
		</g>
		
			<linearGradient id="SVGID_00000101795394613565867870000011710843420916947080_" gradientUnits="userSpaceOnUse" x1="-15.698" y1="937.9473" x2="-29.7322" y2="954.5332" gradientTransform="matrix(0.8982 -0.4395 0.4395 0.8982 -72.1456 527.4962)">
			<stop offset="0" style="stop-color:#DE810F" />
			<stop offset="1" style="stop-color:#DECA6E" />
		</linearGradient>
		<path style="fill:url(#SVGID_00000101795394613565867870000011710843420916947080_);" d="M309.846,1413.801    c-0.331-3.389-0.036-3.971-0.875-7.207c-0.629-2.427-1.161-4.647-2.977-6.191c-6.985-5.94-12.733-8.881-11.017-8.306    c3.861,1.295,10.8,3.809,9.759,1.46c-1.937-4.368-4.38-10.609-2.518-10.594c1.82,0.016,4.974,6.211,7.032,10.726    c1.181,2.591,0.512-12.355-0.455-16.466c-0.967-4.111,9.021,10.759,6.489,18.441c0.19-6.409,3.021-14.525,5.329-16.344    c2.307-1.819-0.873,14.543-0.873,14.543s5.38-9.291,8.826-10.251c3.446-0.961-2.253,12.005-2.253,12.005    s8.637-1.441,16.991-10.323c1.807-1.921-0.599,3.941-4.052,8.442c-2.348,3.061-6.379,5.105-5.235,5.151    c2.827,0.114,7.307-0.379,13.919-2.802c3.017-1.106-4.333,4.207-12.094,7.253c-4.032,1.582-5.8,3.609-6.746,5.899    c-0.875,2.118-1.048,4.462-1.659,6.889c0,0-2.465,9.531-6.07,4.974c-1.215-1.536-1.612-9.601-5.288-10.131    C312.995,1410.522,309.971,1415.077,309.846,1413.801z" />
	</g>
	</svg>