<?xml version='1.0' encoding='utf-8'?>
<svg xmlns="http://www.w3.org/2000/svg" version="1.1" viewBox="86.973 105.977 167.898 661.005" width="250" height="984"><g id="tulips2">
		<g>
			<path style="fill:#7C832A;" d="M176.986,375.864c-0.058,5.878-0.147,12.257-0.257,19.059c-0.013,1.112-0.032,2.237-0.051,3.377     c-0.032,1.945-0.064,3.926-0.096,5.941c-2.02,116.498-8.928,336.757-9.301,348.541c-0.103,3.203-1.924,5.899-4.471,7.08     c-0.891,0.41-1.867,0.639-2.893,0.639c-0.09,0-0.173,0-0.257-0.007c-4.073-0.146-7.261-3.842-7.12-8.254     c0.096-2.987,7.691-245.217,9.461-359.477c0.058-3.689,0.109-7.254,0.154-10.665c0.077-5.718,0.135-11.026,0.167-15.862     c0.045-4.759,0.058-9.074,0.051-12.875c-0.013-6.17-0.077-10.999-0.212-14.25c-0.18-4.405,2.97-8.143,7.043-8.338     c4.092-0.195,7.517,3.224,7.697,7.629c0.122,2.932,0.193,7.073,0.212,12.263C177.146,357.41,177.101,365.928,176.986,375.864z" />
			
				<linearGradient id="SVGID_00000136406054764671657160000007808823624728260014_" gradientUnits="userSpaceOnUse" x1="162.3254" y1="489.3529" x2="162.3254" y2="596.7001">
				<stop offset="0" style="stop-color:#7C7E2A" />
				<stop offset="1" style="stop-color:#B1AB48" />
			</linearGradient>
			<path style="fill:url(#SVGID_00000136406054764671657160000007808823624728260014_);" d="M166.646,513.758     c-0.481,12.767-3.127,56.627-3.127,65.659c0,9.032-0.882,87.285-4.089,94.58c-3.207,7.295,0-65.312,0-65.312l2.245-105.61     C163.038,485.358,166.564,483.761,166.646,513.758z" />
			
				<linearGradient id="SVGID_00000123418252268135997710000011970618874848616873_" gradientUnits="userSpaceOnUse" x1="171.7578" y1="457.9247" x2="168.3708" y2="386.2774">
				<stop offset="0" style="stop-color:#7C7E2A" />
				<stop offset="1" style="stop-color:#B1AB48" />
			</linearGradient>
			<path style="fill:url(#SVGID_00000123418252268135997710000011970618874848616873_);" d="M175.947,364.115l-5.253-1.695     l-8.05-6.26c-0.032,4.836-0.09,10.144-0.167,15.862c-0.045,3.411-0.096,6.976-0.154,10.665     c0.262,0.103,1.116,38.054,1.116,38.054s-1.283,48.289,0.962,48.289c2.245,0,5.933-32.569,5.613-42.991     c-0.249-8.086,6.035-34.737,6.094-39.691C176.194,379.01,175.905,368.201,175.947,364.115z" />
			<path style="fill:#BF9F57;" d="M168.731,372.973c-3.528,11.638-6.501-3.812-6.473-6.47c0.085-7.841,0.126-14.716,0.116-20.44     l15.336-2.619c0.043,9.563-1.684,25.273-1.684,36.738C173.221,391.733,169.212,383.743,168.731,372.973z" />
			<path style="fill:#686820;" d="M176.311,418.998c-2.302,119.368-8.673,322.48-9.03,333.783c-0.103,3.203-1.924,5.899-4.471,7.08     c1.277-53.896,4.554-193.079,4.554-199.381c0-5.974,5.375-74.08,5.696-134.528C173.138,411.339,176.409,413.92,176.311,418.998z" />
		</g>
		<g>
			<path style="fill:#FD5479;" d="M173.649,360.782l-3.205,0.581l-6.764,1.362c0.659-19.885-14.944-26.797-28.715-33.898     c-2.553-1.313-4.878-2.778-7.04-4.495c-4.103-3.238-7.605-7.38-10.91-13.087c-4.33-7.487-8.322-17.688-12.862-32.132     c-10.7-33.988,1.311-61.783,5.245-73.859c0.035-0.114,0.076-0.234,0.111-0.354c3.858-12.203,5.799-36.677,6.446-47.226     c0.653-10.656,16.388-33.382,23.602-32.675c1.102,0.107,2.034,0.663,2.821,1.572c4.377,5.019,4.295,20.763,3.736,30.39     l17.699,100.14l7.372,77.679l0.012,0.151l0.507,5.309L173.649,360.782z" />
			<path style="fill:#E1394F;" d="M171.9,336.875l-0.198,3.365l-1.259,21.123l-5.642,0.928     c-0.08-21.713-16.067-26.362-29.838-33.464c-20.273-9.874-28.292-48.959-25.805-44.267c7.456,14.07,24.713,33.141,28.868,31.247     c4.155-1.894,8.96-4.024,3.278-16.334c0,0,20.106,10.416,20.98,11.836c0.723,1.174,6.813,17.853,8.911,23.622     C171.638,336.143,171.9,336.875,171.9,336.875z" />
			
				<linearGradient id="SVGID_00000061454423625608733310000015771676500431350941_" gradientUnits="userSpaceOnUse" x1="117.9572" y1="316.5793" x2="138.6639" y2="331.049">
				<stop offset="0" style="stop-color:#E1394F" />
				<stop offset="1" style="stop-color:#DECA6E" />
			</linearGradient>
			<path style="fill:url(#SVGID_00000061454423625608733310000015771676500431350941_);" d="M175.145,364.115     c-0.641,7.643-4.811,15.286-6.575-0.174c-3.528,9.032-6.258-1.35-6.38-2.783c-0.381-4.471-1.485-9.138-2.774-12.017     c-4.486-10.018-14.469-15.167-24.452-20.315c-2.553-1.313-4.878-2.778-7.04-4.495c-3.386-4.097,4.749-0.846,5.064-0.72     c-8.299-4.735-18.598-25.539-16.614-22.638c4.811,7.035,13.787,13.888,21.87,13.409l32.938,20.397l0.012,0.151l0.507,5.309     C171.702,340.24,175.786,356.472,175.145,364.115z" />
			<path style="fill:#DE2B3E;" d="M126.881,165.484c-3.934,12.31-20.98,65.811-20.543,79.541c0.437,13.73-3.497,21.779,4.371,38.35     c7.868,16.571,20.98,28.644,28.41,31.485c7.43,2.841,9.179-26.75,9.179-26.75l6.556-92.324L126.881,165.484z" />
			<path style="fill:#FD5479;" d="M218.231,317.464l-13.765-144.878c-0.659-22.726,1.871-33.451,5.898-39.064     c2.838-3.952,6.434-8.996,10.315-10.075c2.389-0.669,4.89,0.17,7.39,3.687c6.55,9.229,9.831,41.904,9.173,53.267     c-0.192,3.333,0.122,8.674,0.746,15.024c1.503,15.334,4.802,36.545,7.121,49.6C248.39,263.489,238.558,306.101,218.231,317.464z" />
			<path style="fill:#DE2B3E;" d="M241.833,268.224c0.513-25.537-9.645-48.788-12.496-74.033     c-2.413-21.365-12.563-61.692-18.973-60.67c-4.027,5.612-6.556,16.338-5.898,39.064l13.765,144.878     c6.734-3.764,12.315-10.96,16.65-19.569C240.959,285.9,241.648,277.454,241.833,268.224z" />
			<path style="fill:#DE2B3E;" d="M235.062,234.135c-1.096-3.39-2.25-7.721-3.433-12.645c-5.449-22.581-11.65-57.636-16.673-71.631     c-6.119-17.045-16.609-29.355-26.225-30.301c-9.616-0.947-16.609,7.575-16.609,7.575l-0.373,7.083l-7.494,141.583l6.69,44.53     l1.603,10.656l2.768,18.433l0.166,1.101c0.587-0.512,1.204-0.993,1.874-1.423c1.99-1.277,4.175-2.181,6.323-3.095     c9.153-9.371,24.317-16.719,37.827-29.959c7.168-7.026,11.743-18.174,14.284-30.276c1.55-7.361,2.343-15.075,2.523-22.429     C238.587,251.817,237.34,241.174,235.062,234.135z" />
			<path style="fill:#C51C30;" d="M234.717,243.393c4.811,9.901,4.918,34.849,3.367,42.209c-2.541,12.102-9.41,23.415-16.578,30.441     c-15.106,14.803-32.286,22.24-40.812,33.376h-8.141l-4.802-24.853l3.194-4.236c0,0,44.289-71.987,45.01-99.344     c9.862,18.76,12.267,53.674,8.419,69.307C238.325,267.363,232.531,241.701,234.717,243.393z" />
			<path style="fill:#FD5479;" d="M211.675,158.382c0,0,10.927,50.187,9.179,59.656c-16.609-105.581-46.03-94.196-41.677-96.46     c2.651-1.379,5.915-2.377,9.555-2.019c9.616,0.947,20.106,13.257,26.225,30.301c5.023,13.995,11.224,49.05,16.673,71.631     C227.678,211.75,214.379,165.079,211.675,158.382z" />
			
				<linearGradient id="SVGID_00000083073932130054817970000001500114383178483639_" gradientUnits="userSpaceOnUse" x1="218.3574" y1="271.818" x2="208.3679" y2="298.969">
				<stop offset="0" style="stop-color:#C51C30" />
				<stop offset="1" style="stop-color:#B3694E" />
			</linearGradient>
			<path style="fill:url(#SVGID_00000083073932130054817970000001500114383178483639_);" d="M236.04,287.295     c-1.556,7.405-4.119,12.928-7.33,18.893c-2.034,3.781-4.423,7.127-7.203,9.854c-17.428,17.08-37.83,23.835-44.317,38.301     c-0.346,0.772-2.701,2.442-2.966,3.257l-0.906-21.496l-0.769-5.12l11.486-10.094l25.456-22.366     c0.571-0.682,1.101-1.698,1.614-2.954c3.025-7.418,5.327-23.023,10.187-25.453c2.841-1.42,2.35,9.651,0.437,19.001     s-3.291,16.937-0.539,14.605c3.124-2.648,7.276-8.245,10.761-20.077c4.587-15.574,5.456-18.175,5.893-11.073     C238.059,276.09,236.85,282.321,236.04,287.295z" />
			<path style="fill:#BF9F57;" d="M227.26,304.101c-2.165,5.732-13.273,18.748-17.061,21.651     c-12.512,9.587-24.662,16.128-30.791,25.475c-1.229,1.874-3.06,5.027-4.223,6.851l-1.724-1.216l-0.145-20.757l10.717-15.214     l1.416-2.007c2.523-2.733,18.26-22.243,26.897-21.297c1.443,0.521-2.646,17.717-6.494,23.45     C205.853,321.037,218.601,313.741,227.26,304.101z" />
			<path style="fill:#FD5479;" d="M219.327,271.065c-0.018,0.379-0.041,0.764-0.076,1.155c-0.676,8.333-4.785,20.15-10.041,31.589     c-7.57,16.47-17.53,32.145-23.101,35.434c-7.912,4.675-23.657,8.345-27.094,2.43c-5.728-9.857-15.084-15.924-22.733-24.209     c-2.558-2.771-5.146-6.193-7.605-10.309c-2.477-4.141-4.825-8.989-6.871-14.57c-1.947-5.315-3.625-11.3-4.884-17.979     c-2.407-12.764-3.287-28.079-1.62-46.153c0.268-2.929,0.554-5.738,0.845-8.421c4.4-40.673,10.95-53.861,14.89-65.438     c6.119-17.991,20.106-35.036,34.092-37.877c3.671-0.745,7.104-0.644,10.402,0.6c1.993,0.751,3.945,1.919,5.869,3.573     c7.022,6.01,13.73,18.414,21.318,40.332C215.83,199.099,220.201,251.179,219.327,271.065z" />
			<path style="fill:#FF719E;" d="M181.4,120.89c-0.594,4.268-1.317,9.772-1.853,16.899c3.281,27.694,0.003,76.7-3.931,84.509     c-3.934,7.809-4.589-78.121-7.212-84.512c-2.622-6.392-7.865,21.299-8.523,45.452c-0.659,24.14-5.245,58.235-6.556,62.496     c-1.311,4.261-13.118-26.271-10.493-56.812c-1.964-12.786-25.566,34.086-25.91,85.683c-2.407-12.764-3.287-28.079-1.62-46.153     c0.268-2.929,0.554-5.738,0.845-8.421c4.4-40.673,10.95-53.861,14.89-65.438c6.119-17.991,20.106-35.036,34.092-37.877     c3.671-0.745,7.104-0.644,10.402,0.6C177.524,118.068,179.477,119.236,181.4,120.89z" />
			<path style="fill:#FFB1D8;" d="M175.531,117.317c-19.803,2.715-28.76,16.918-34.663,40.358     c-5.904,23.433-6.556,25.564-13.768,36.216c-3.994,5.9-10.574,26.507-10.953,26.141c4.4-40.673,10.95-53.861,14.89-65.438     c6.119-17.991,20.106-35.036,34.092-37.877C168.8,115.972,172.233,116.073,175.531,117.317z" />
			<path style="fill:#FFB1D8;" d="M159.007,126.423c9.011-8.038-2.392,17.248-4.589,29.828c-4.589,26.277-3.06,40.481-4.371,44.742     c-1.311,4.261-3.06-20.832-1.748-39.297C149.609,143.231,147.861,136.366,159.007,126.423z" />
			<path style="fill:#FF719E;" d="M186.106,142.758c5.802-14.926,16.609,35.983,13.987,45.452     C197.47,197.679,182.609,151.753,186.106,142.758z" />
			<path style="fill:#E1394F;" d="M216.116,221.593c4.302,20.874,5.303,39.386,3.207,54.629     c-5.325,38.729-26.444,59.021-33.214,63.021c-9.616,5.681-11.586,0-11.586,0s-13,5.597-17.668-0.896     c-5.743-7.987-13.823-13.571-20.574-20.883c-5.123-5.549-10.397-13.749-14.476-24.879c2.034,3.927,3.677,3.927,7.914,3.573     c-3.712-9.469-6.422-35.004-3.712-51.133c1.311-7.815,5.762,41.359,18.357,55.868c5.41,6.232-4.016-19.112-1.13-51.42     c0.404-4.524,9.301,43.078,16.998,42.73c4.148-0.187,7.554-60.56,8.018-68.091c0.656-10.653,8.98,43.773,6.71,76.307     c1.947,4.575,9.14-11.659,13.334-32.795c5.532-27.879,3.332-49.972,4.33-47.681c7.938,18.239-0.827,74.182,1.081,77.722     c1.146,2.126,3.707-0.788,8.792-12.869c9.38-22.287,4.589-1.42,4.589,7.102C207.085,298.462,219.804,252.512,216.116,221.593z" />
			
				<linearGradient id="SVGID_00000157284248473766713410000014296007140053542835_" gradientUnits="userSpaceOnUse" x1="170.192" y1="294.2065" x2="169.8445" y2="318.5253">
				<stop offset="0" style="stop-color:#E1394F" />
				<stop offset="1" style="stop-color:#DECA6E" />
			</linearGradient>
			<path style="fill:url(#SVGID_00000157284248473766713410000014296007140053542835_);" d="M211.385,303.84     c-3.838,12.538-12.814,29.268-25.277,35.402c-8.238,9.413-22.791,6.283-28.632,3.314c-15.962-8.112-13.547-16.808-21.195-25.093     c-2.558-2.771-5.146-6.193-7.605-10.309c0.274-0.941,1.043-1.401,2.43-1.212c5.023,0.682,9.901,4.293,13.619,7.885     c-1.404-2.184-1.789-3.901,0.804-3.624c6.451,0.694,12.908,11.717,13.107,12.064c-0.198-0.518-8.456-22.006-3.275-22.006     c5.245,0,8.526,24.853,8.526,24.853s1.311-38.344,5.245-37.637c3.934,0.707,2.768,37.877,2.768,37.877s4.441-7.335,8.38-17.991     c3.928-10.656,11.288-19.727,6.48-5.05c-3.446,10.521-4.289,20.996-4.505,21.375c0.396-0.454,10.269-12.758,15.432-21.849     c5.245-9.229-7.43,23.2,0.291,16.887C201.892,315.528,204.543,312.098,211.385,303.84z" />
			<path style="fill:#F4F285;" d="M140.989,329.027c9.942,4.864,15.394,10.075,18.601,15.633c3.207,5.558,3.207,14.938,6.094,15.286     c2.886,0.348,1.283-2.432,3.528-3.821c2.245-1.39,1.498,7.231,4.437,4.658c2.939-2.573,3.613-12.775,3.34-18.38     c-0.481-9.901,1.844-13.028,1.203-17.196c-0.641-4.169-6.291,11.67-6.291,11.67s-1.085-18.618-3.009-19.66     c-1.924-1.042-1.924,19.107-1.924,19.107s-4.811-11.117-6.094-11.117c-1.283,0,0.321,9.38,0.321,9.38     s-5.773-16.675-11.225-17.023c-5.452-0.347,4.49,12.507,4.49,12.507s-10.583-8.338-13.149-7.99     c-2.566,0.347,7.056,9.032,7.056,9.032S142.914,329.027,140.989,329.027z" />
			<path style="fill:#F4F285;" d="M179.875,333.804c0.962-2.605,7.697-11.725,9.862-14.852c2.165-3.127,1.203,1.303-0.241,5.211     c-1.443,3.908-10.583,13.549-10.583,13.549L179.875,333.804z" />
			<path style="fill:#FF719E;" d="M237.987,195.425c-1.381,0.366-2.768-0.764-4.021-3.901c-5.682-14.204-8.742-61.076-8.742-61.076     s0,25.093-3.934,15.624c-2.704-6.515-2.104-16.161-0.612-22.625c2.389-0.669,4.89,0.17,7.39,3.687     c6.55,9.229,9.831,41.904,9.173,53.267C237.049,183.734,237.364,189.074,237.987,195.425z" />
			<path style="fill:#FFB1D8;" d="M229.012,134.393c1.591-3.446,5.828,17.991,3.788,20.832     C230.761,158.066,227.555,137.549,229.012,134.393z" />
			<path style="fill:#FF719E;" d="M142.377,126.572c-0.449,1.338-1.206,2.563-2.238,3.403c0,0-8.159,8.838-10.781,18.307     c-2.623,9.469-7.285,11.679-1.166-5.682c0,0-7.285,5.05-6.702,14.204c0.583,9.153-2.914,23.357-5.536,32.511     c-2.267,7.91-3.66,15.353-6.446,15.586c3.858-12.203,5.799-36.677,6.446-47.226c0.653-10.656,16.388-33.382,23.602-32.675     C140.658,125.107,141.59,125.662,142.377,126.572z" />
			<path style="fill:#FFB1D8;" d="M135.404,127.607c3.891-3.39,1.093,4.735-2.841,8.049     C128.63,138.97,125.351,136.366,135.404,127.607z" />
		</g>
		<path style="fill:#E5EA85;" d="M172.258,357.167c-0.608-1.186-1.764,11.117-0.321,10.943    C173.381,367.936,173.862,360.293,172.258,357.167z" />
	</g>
	</svg>